<?xml version="1.0" encoding="utf-8"?>
<!-- Generator: Adobe Illustrator 28.4.1, SVG Export Plug-In . SVG Version: 6.00 Build 0)  -->
<svg version="1.1" id="Layer_1" xmlns="http://www.w3.org/2000/svg" xmlns:xlink="http://www.w3.org/1999/xlink" x="0px" y="0px"
	 viewBox="0 0 121 80" style="enable-background:new 0 0 121 80;" xml:space="preserve">
<style type="text/css">
	.st0{fill-rule:evenodd;clip-rule:evenodd;fill:#B3408E;}
	.st1{fill-rule:evenodd;clip-rule:evenodd;fill:#A174B4;}
	.st2{fill-rule:evenodd;clip-rule:evenodd;fill:#EF5052;}
	.st3{fill-rule:evenodd;clip-rule:evenodd;fill:#C852A9;}
	.st4{fill-rule:evenodd;clip-rule:evenodd;fill:#FADBC8;}
	.st5{fill-rule:evenodd;clip-rule:evenodd;fill:#3F124A;}
	.st6{fill-rule:evenodd;clip-rule:evenodd;fill:#E38B6A;}
	.st7{fill-rule:evenodd;clip-rule:evenodd;}
	.st8{fill-rule:evenodd;clip-rule:evenodd;fill:url(#Shape_00000155130856937241215130000017522721176984239008_);}
	.st9{fill-rule:evenodd;clip-rule:evenodd;fill:#88559D;}
	.st10{fill-rule:evenodd;clip-rule:evenodd;fill:#8D73BA;}
	.st11{fill-rule:evenodd;clip-rule:evenodd;fill:#371133;}
	.st12{fill-rule:evenodd;clip-rule:evenodd;fill:#894DA3;}
	.st13{fill-rule:evenodd;clip-rule:evenodd;fill:#E5977A;}
	.st14{fill-rule:evenodd;clip-rule:evenodd;fill:url(#Shape_00000101085818106307088300000013527628612270228116_);}
</style>
<g id="logo">
	<g id="Group-2" transform="translate(82.9032, 1.3619)">
		<path id="Path" class="st0" d="M15.1,9.8l-0.2,0c-0.3,0-0.7,0-1,0c0,0-0.1,0-0.1-0.1l0.1,0.1c-0.3,0-0.6,0-0.9-0.1l-0.4,0
			c-0.2,0-0.5-0.1-0.8-0.1c0.2-0.3,0.3-0.7,0.4-1.1c0,0,0,0.1,0.1,0.1l0,0.1l-0.1-0.3c0-0.2,0.1-0.4,0-0.5c0-0.2,0-0.5-0.1-0.7
			l0-0.1l0,0l0-0.2l-0.1-0.2c-0.2,0-0.3-0.1-0.5-0.1l-0.5-0.1l-0.2,0c-0.3,0-0.5-0.1-0.8-0.1l-0.5,0c-0.4,1-0.9,1.5-1.3,1.9
			C8.1,8.4,8,8.6,8,8.6c-0.1,0-0.2,0-0.2,0C7.4,8.8,7.4,8.6,7,8.4c0,0-0.1,0-0.1,0C6.6,8.4,6,9,5.8,8.8C5.6,8.7,5.4,8.5,5.1,8.5
			L5,8.5l-0.1,0l-0.1,0C4.3,8.7,2.3,8.7,1,8L0.8,7.8L0.7,7.8L0.6,7.7C0.2,7.3,0.4,7,0.9,6.7C1.6,6.3,3,6,4.7,5.8
			c1-0.1,1.8-0.2,2.5-0.2c0.4,0,0.8,0,1.1,0.1l0.9,0.1c0.2,0,0.4,0,0.6,0.1c0.1,0,0.3,0,0.4,0l0.2,0c0.5,0,1.2,0,2,0.1
			c1.1,0.1,2.3,0.5,3.1,1l0.3,0.2c1.2,0.8,1.9,1.4,1.4,2c-0.1,0.1-0.2,0.2-0.3,0.2l-0.2,0.1c-0.1,0.1-0.3,0.1-0.4,0.2
			C15.8,9.7,15.5,9.8,15.1,9.8z"/>
		<path id="Fill-27" class="st1" d="M12.2,7C12.2,7,12.2,7,12.2,7C12.2,7.1,12.2,7.1,12.2,7c0,0.2,0,0.3,0.1,0.4c0,0.3,0,0.9,0,1
			c0,0,0,0,0,0c-0.1,0.4-0.2,0.8-0.4,1.1c-0.1,0.1-0.1,0.2-0.2,0.3c-0.3,0.5-0.6,0.1-1.2-0.3C9.9,9.3,9.2,9.1,8.7,9
			c-0.1,0-0.2-0.1-0.3-0.1C8.1,8.8,8,8.8,8,8.6c0-0.1,0.1-0.2,0.3-0.4c0.4-0.4,0.9-0.9,1.3-1.9c0,0,0.1,0,0.1,0
			c0.4,0,0.8,0.1,1.2,0.1c0.1,0,0.3,0,0.4,0c0.3,0,0.5,0.1,0.8,0.1c0,0,0,0.1,0.1,0.2C12.1,6.8,12.1,6.9,12.2,7
			C12.2,7,12.2,7,12.2,7z"/>
		<path id="Fill-37" class="st2" d="M12.3,5.3c-0.1,0-0.3-0.1-0.5-0.1c-0.9-0.4-1.3-1.3-1.3-1.3c0,0,0,0,0,0c1,0.2,1.6,0.5,2,1
			C12.9,5.2,12.7,5.4,12.3,5.3 M9.8,3.2C8.1,2.8,8.1,2.3,8.1,2.3C8.2,2.2,8.4,2.1,8.7,2C8.9,2,9.1,1.9,9.3,1.9
			c1.2,0,2.4,0.8,2.2,1.2c-0.1,0.3-0.4,0.4-0.9,0.3C10.4,3.4,10.1,3.3,9.8,3.2 M15.6,3.3L15.6,3.3c-0.1-0.1-0.1-0.2-0.2-0.2
			c-0.2-0.2-0.4-0.5-0.5-0.7c-0.7-1-1-1.6-1.9-2c0.6,0.6-0.4,0.9-0.9,0.7c-0.4,0.2-0.6,0.2-1.4,0C10,0.9,9.6,0.6,10.1,0.3
			c-1,0.3-1.8,1-2.9,1.7C6.6,2.3,5.9,2.7,5,3C1.7,4.2-0.7,5.9,0.3,7.3c0.1,0.1,0.2,0.3,0.3,0.4C0.2,7.3,0.4,7,0.9,6.7
			C1.6,6.3,3,6,4.7,5.8c1-0.1,1.8-0.2,2.5-0.2c0.5,0,0.9,0.1,1.3,0.1c0.5,0,0.9,0.1,1.2,0.1c0.2,0,0.4,0,0.6,0c0.5,0,1.2,0,2,0.1
			c1.1,0.1,2.3,0.5,3.1,1c1.4,0.9,2.2,1.5,1.7,2.2c0.2-0.2,0.4-0.4,0.6-0.7C18.6,6.7,17,5,15.6,3.3"/>
		<path id="Fill-41" class="st3" d="M12.6,4.9c0.3,0.3,0.1,0.5-0.3,0.4c-0.1,0-0.3-0.1-0.5-0.1c-0.9-0.4-1.3-1.3-1.3-1.3
			c0,0,0,0,0,0C11.6,4.1,12.2,4.4,12.6,4.9"/>
		<path id="Fill-43" class="st4" d="M6.8,12.2C6.9,12.1,7,12,6.9,12c0,0,0-0.1,0-0.1c-0.2-0.3,0-0.5,0.4-0.7
			c0.4-0.2,0.4-0.8,0.6-1.3C8.1,9.3,8.6,9.3,8.7,9c0.5,0.1,1.2,0.3,1.7,0.7c-0.6,0.5-0.3,1-0.4,1.4c-0.1,0.4-0.5,0.2-0.5,0.5
			c0,0.2,0,0.4-0.1,0.6c0,0.2-0.1,0.3-0.2,0.5c-0.2,0.3-0.8,1.4-1,1.8l0,0l-3.3,3.7L5,14.3c0.4-0.2,1.6-1.1,1.7-1.6
			C6.7,12.5,6.7,12.3,6.8,12.2"/>
		<path id="Shape" class="st5" d="M2.6,4.1C2,4.4,1.9,4.7,1.4,5.2S0.6,6.6,0.6,6.9L0.5,7l0,0.1l0.2-0.3l0.1-0.1
			C1.2,6.6,2.1,6.3,3.4,6c-1,0.2-2.4,1-2.5,1.1C0.8,7.3,1,7.5,1,7.5l1.5-0.3l0.9-0.4l1-0.2l0.8-0.2c0.2,0,0.4-0.1,0.5-0.1l0.1,0
			c0.1,0,0.3,0,0.5,0l1,0l1.5,0l0.9,0l0,0L12,6.5l0,0.1l0,0h0.2L13.6,7l1.7,0.8c0.1,0.1,0.2,0.1,0.3,0.1c0.4,0.2,1,0.8,1.3,0.9
			c0.3,0.1,0.4-0.1,0.4-0.1L17.2,9L17,9.2l-0.9,0.4l-1,0.2l-1.1,0l-0.3-0.4l-0.2-0.1c-0.2-0.1-0.4-0.1-0.6-0.2
			c-0.3-0.2-0.7-0.6-0.7-0.7c0,0,0-0.2,0-0.4l0-0.1l0,0.1l0,0.2l0-0.1c-0.1-0.3-0.4-0.3-0.5-0.4c-0.1-0.1-0.1-0.1-0.2,0l0,0.2
			c0,0.3-0.1,0.4-0.2,0.3l0,0c0-0.1,0-0.7-0.1-0.6l0,0c0,0.2-0.3,0.5-0.3,0.5l0-0.1c0,0,0-0.1,0-0.2c0-0.3,0.3-0.6,0.1-0.7
			c-0.1,0-0.5,0.6-0.6,0.7s0.1-0.5,0.1-0.6S9.7,7,9.6,7.2L8.5,8.4C8.2,8.8,8.8,9,8.8,9l-0.2,0c-0.1,0-0.2,0-0.4-0.1
			C8.1,8.8,8.1,8.7,8,8.7L7.5,8.7L7.3,8.6C7.2,8.5,7.1,8.4,7,8.4C6.8,8.3,6.6,8.5,6.4,8.6C6.3,8.5,6.6,8.1,7,7.9l0.1,0
			c0.4-0.2,0.9-0.7,0.8-0.8C7.8,7,7.4,7.1,6.9,7.4C6.5,7.6,6.1,8,5.7,8.2L5.6,8.3c-0.2,0.1,0,0,0.3,0c0.2,0,0.4,0.4,0.4,0.4L6,8.9
			L5.6,8.6c0,0,0,0-0.1,0c-0.2-0.1-0.4-0.1-1,0C5,8.3,6.7,6.9,6.3,7C5.9,7,4.8,7.9,4.4,8.2s0,0.4,0,0.4H3.1L1.6,8.3L0.8,7.9L0.5,7.5
			l0-0.1l0,0.2L0.2,7.2L0,6.9V6.6l0.1-0.4l0.6-0.8L1,5.1C1.3,4.9,1.8,4.5,2.6,4.1z M12.5,7.7L12.5,7.7l0.5,0.8l0.5,0.6
			c0.2,0.2,0.3,0.4,0.4,0.4c0.3,0.2,0.3-0.2,0-0.4c-0.2-0.2-0.6-0.7-0.6-0.7l0.3,0.1c0.3,0.1,0.7,0.3,0.8,0.2
			c0.2-0.1,0.1-0.2-0.4-0.5c-0.4-0.2-1.1-0.5-1.5-0.6L12.5,7.7z M14.9,9l-0.8-0.2l0,0c0.1,0.1,0.3,0.4,0.7,0.5c0.5,0.2,0.8,0,0.8,0
			L14.9,9z M17.5,5.8l0.3,0.7L17.9,7l0,0.6L17.8,8l-0.2,0.5L17.2,9l0-0.3l-0.1-0.4l-0.5-0.5l0,0c0-0.1,0.1-0.3,0.3-0.4
			C17.3,7.2,17.6,6.5,17.5,5.8z M13,7.3l2.4,1.4c0.1,0.1,0.2,0.1,0.3,0.1c0.3,0.1,0.3-0.2,0-0.4C15.3,8.1,13.6,7.4,13,7.3z M9.3,6.8
			L9.1,7.1l0,0C9,7.1,8.7,7.3,8.4,7.7C8,8.1,7.9,8.3,8.1,8.4l0,0.1l0-0.1l0.2-0.2c0.3-0.3,0.8-1,1-1.3L9.3,6.8L9.3,6.8z M4.2,7.5
			c-0.7,0.3-1,0.4-1.4,0.3L2.2,7.9l0.2,0.3l0.4,0.2l0.7-0.1L4.2,8c0.4-0.2,0.8-0.4,1-0.5C5.6,7.2,5.6,7.1,5.5,7
			C5.4,6.9,4.9,7.2,4.2,7.5z M8.5,6.9L8.5,6.9C8.4,7,7.8,7.5,7.7,7.7C7.6,8,7.8,8,7.9,7.9L8,7.8c0.2-0.2,0.5-0.6,0.5-0.6
			C8.6,7.1,8.6,6.9,8.5,6.9L8.5,6.9z M4.8,6.7c-0.4,0.1-1.5,0.5-2,0.7c-0.5,0.2,0,0.3,0.3,0.2l1-0.4l1.1-0.5l0,0
			C5.1,6.7,5,6.7,4.8,6.7z"/>
		<path id="Shape_00000003073108006989302980000005882473851659218093_" class="st1" d="M6,13.9c0.3-0.4,0.5-0.3,0.6-0.3l0,0
			c0.1,0.1,0.1-0.1,0-0.4C6.6,13,6.9,12.5,7,12.4l0,0c0.1,0,0.3-0.4,0.2-0.5l0,0c-0.2-0.1,0-0.5,0.1-0.7l0-0.1
			c-0.4,0.2-0.6,0.4-0.5,0.6l0,0.1c0,0,0,0.1,0,0.1c0,0,0,0.1,0,0.1l-0.1,0.1c-0.1,0.1-0.2,0.2-0.2,0.5c-0.1,0.4-1,1.1-1.5,1.4
			C5.4,14.2,5.8,14.2,6,13.9z M10,11c0.1-0.4-0.2-0.9,0.4-1.4C9.9,9.3,9.2,9.1,8.7,9C8.6,9.3,8.1,9.3,8,9.8
			c-0.1,0.4-0.2,0.9-0.4,1.2l0.3-0.2C7.9,10.8,8,10.7,8,10.6c0-0.1,0.2-0.2,0.2-0.3l0-0.1c0-0.2,0.3-0.1,0.4,0
			c0.1,0.1,0.2,0,0.1-0.1l0,0C8.7,9.9,8.8,9.8,9,9.9c0.3,0.1,0.8,0.6,0.8,0.8c0,0.2-0.2,0-0.2,0.2c0,0.2-0.4,0.3-0.3,0.5
			c0.1,0.2,0.1,0.5-0.1,0.4l-0.1,0c-0.2-0.1-0.7-0.3-0.6-0.2l0.1,0.1c0.1,0.2,0.4,0.5,0.2,0.6c-0.1,0.2-0.1,0.4,0,0.7l0,0.1
			C8.9,12.9,9,12.8,9,12.8l0.1-0.2c0.1-0.2,0.2-0.3,0.2-0.5c0.1-0.2,0.1-0.5,0.1-0.6C9.5,11.2,10,11.4,10,11z"/>
		<path id="Fill-65" class="st1" d="M8.1,14.4c0.1-0.1,0.2-0.3,0.3-0.6c-0.2,0-0.5-0.1-0.6-0.2c-0.2,0,0,0.2-0.1,0.3
			c-0.1,0.1,0,0.3,0.2,0.3C8,14.3,8,14.4,8.1,14.4L8.1,14.4L8.1,14.4z"/>
		<path id="Shape_00000039094797418385600770000014649393382444297620_" class="st6" d="M9.3,1.9c1.2,0,2.4,0.8,2.2,1.2
			c-0.1,0.3-0.4,0.4-0.9,0.3c-0.2,0-0.5-0.1-0.9-0.2C8.1,2.8,8.1,2.3,8.1,2.3C8.2,2.2,8.4,2.1,8.7,2C8.9,2,9.1,1.9,9.3,1.9z M13,0.4
			c0.6,0.6-0.4,0.9-0.9,0.7c-0.4,0.2-0.6,0.2-1.4,0C10,0.9,9.6,0.6,10.1,0.3c0.5-0.2,1.1-0.2,1.8-0.1C12.3,0.2,12.7,0.3,13,0.4z
			 M6,4.2c-0.5,0-1.6,0-2.2,0.4C3.2,4.9,4,5.7,4.3,5.8c0.2,0,1.5-0.1,2.1-0.1l0.4,0c0.4,0,0.8-0.1,0.7-0.4C7.3,4.9,7,4.4,6.6,4.3
			C6.3,4.2,6,4.2,6,4.2z M17.7,6.2c-0.1-0.1-0.6,0.1-0.5,0.3c0.1,0.2,0.5,0.7,0.4,0.8c-0.1,0.1-0.3-0.3-0.4-0.4c0-0.1-0.4,0-0.3,0.2
			s0.2,0.6,0.6,0.6c0.4,0,0.5-0.1,0.5-0.1l0-0.4l-0.1-0.5L17.7,6.2z"/>
		<path id="Shape_00000052082476269318294210000006908014147327524745_" class="st7" d="M10.1,0.2c0.8-0.2,1.6-0.3,2.5,0
			c0.1,0,0.2,0.1,0.3,0.1c0,0,0,0,0,0c0.9,0.4,1.4,1.2,2,2.1c1,1.4,2.6,2.7,2.9,4.4c0.2,0.9-0.1,1.8-0.8,2.3l0,0.1c0,0,0,0,0,0
			c-0.1,0.1-0.3,0.2-0.5,0.3c0,0,0,0,0,0l-0.2,0.1l-0.2,0.1c-1.3,0.4-3,0.3-4.3,0c-0.1,0.2-0.3,0.5-0.4,0.5c-0.3,0.1-0.7-0.3-1-0.5
			c-0.4,0.4-0.3,0.8-0.3,1.2c0,0.1,0,0.3-0.1,0.4c-0.1,0.1-0.2,0.1-0.2,0.1c-0.1,0.1-0.2,0.2-0.2,0.3l-0.1,0.4
			c0,0.1-0.1,0.3-0.1,0.4c-0.3,0.5-0.6,1.1-0.9,1.6c0,0.1,0,0.1,0,0.2l-0.2,0.2l-0.1,0.1c0,0,0,0-0.1,0l-3.2,3.5
			c-0.1,0.1-0.1-0.1-0.1-0.1l0.2-3.7l0,0c-0.1,0-0.1-0.2,0-0.2l0.1,0l0-0.3c0-0.1,0.1-0.1,0.1,0l0,0.2c0.3-0.2,0.6-0.4,0.9-0.7
			c0.3-0.2,0.5-0.4,0.6-0.8l0.1-0.2c0-0.1,0.1-0.2,0.1-0.2c0-0.1,0-0.1,0-0.1c0-0.1,0-0.2,0-0.2c0-0.2-0.1-0.3,0-0.4
			C7,11.1,7.5,11,7.6,10.7c0.1-0.1,0.1-0.2,0.1-0.4c0,0,0,0,0-0.1C7.8,10,7.9,9.8,8,9.6C8.1,9.4,8.4,9.2,8.6,9L8.4,9
			C8.2,8.9,8,8.9,8,8.8c-0.2,0-0.4,0.1-0.5,0.1c-0.1,0-0.2-0.2-0.3-0.2C6.8,8.4,6.5,8.7,6.2,8.9C5.9,9,5.9,9,5.6,8.8
			C5.3,8.6,5,8.7,4.6,8.7C3.4,8.9,1.9,8.7,0.9,8L0.8,8c0,0,0,0,0,0c-0.1,0-0.1-0.1-0.2-0.2l0,0l0,0C0,7.3-0.2,6.6,0.2,5.9
			C1,4.5,2.8,3.8,4.1,3.2L5,2.9C5.7,2.6,6.3,2.4,6.8,2c0.7-0.4,1.3-0.8,1.9-1.2C9.2,0.6,9.6,0.4,10,0.2L10.1,0.2
			C10.1,0.2,10.1,0.2,10.1,0.2z M8.7,9.1C8.5,9.4,8.2,9.5,8,9.8C8,10,7.9,10.1,7.9,10.2c0.2,0,0.4,0,0.5,0.1c0.1,0,0,0.3,0,0.2
			c-0.2-0.1-0.4-0.2-0.6-0.1c0,0.2-0.1,0.4-0.2,0.5c-0.1,0.1-0.1,0.2-0.2,0.2l-0.1,0.1C7.1,11.4,7,11.5,7,11.8c0.2,0,0.5,0,0.7,0.1
			c0.1,0,0,0.3,0,0.2C7.5,12,7.2,12,7,12.1l0,0.1c0.1,0,0.2,0.1,0.2,0.2c0,0,0,0.1,0,0.2c0,0-0.1,0-0.1,0l0,0c0,0,0,0,0,0
			c0,0,0,0,0,0c-0.1,0-0.1-0.1-0.2-0.1l-0.2,0.3C6.5,13,6.4,13.3,6,13.6c-0.3,0.3-0.7,0.5-1,0.8l-0.2,3.5l3.2-3.6
			c0.2-0.3,0.3-0.6,0.5-0.9c0.2-0.4,0.6-0.8,0.7-1.3c-0.2-0.3-0.5-0.6-0.9-0.6c-0.1,0-0.1-0.2,0-0.2c0.4,0,0.7,0.3,0.9,0.6l0-0.1
			c0-0.1,0-0.4,0.1-0.5c0.2-0.3,0.4,0,0.5-0.5c0.1-0.5,0-0.8,0.3-1.2l-0.1,0C9.7,9.3,9.2,9.2,8.7,9.1z M9.6,6.4L9.6,6.4
			C9.4,7,9,7.5,8.6,8L8.4,8.2C8.2,8.4,8,8.6,8.3,8.7c0.1,0.1,0.4,0.1,0.5,0.1c0.4,0.1,0.7,0.2,1,0.3c0.2,0.1,0.4,0.2,0.6,0.3
			c0,0,0,0,0,0L11,9.9c0.4,0.3,0.6,0,0.8-0.3c0,0,0,0,0-0.1l0.1-0.2c0.3-0.8,0.4-1.5,0.2-2.3c0,0,0,0,0-0.1c0-0.1,0-0.2-0.1-0.3
			c-0.2,0-0.5-0.1-0.7-0.1c-0.1,0.2-0.1,0.4-0.2,0.6c0.1,0.4,0.2,0.8,0.1,1.2c0,0.1-0.1,0-0.1-0.1c0-0.2,0-0.5-0.1-0.7l0-0.1L11,7.7
			L11,8.1c0,0.2-0.1,0-0.1-0.1c0.1-0.5,0.2-1,0.4-1.5l-0.3,0c-0.2,0.4-0.4,1-0.4,1.4c0,0.1-0.1,0.1-0.1,0c0-0.5,0.2-1,0.4-1.4
			C10.4,6.4,10,6.4,9.6,6.4z M12.2,7.1c0.1,0.4,0.4,0.9,0.6,1.2L13.3,9c0.2,0.3,0.4,0.5,0.6,0.7c0,0,0,0,0,0c0.2,0,0.5,0,0.7,0
			c-0.2-0.1-0.4-0.3-0.6-0.5c-0.4-0.3-0.7-0.6-1-1c0,0,0-0.3,0-0.2c0.3,0.2,0.6,0.4,1,0.6l0.2,0.1c0.2,0,0.6,0.1,0.9,0
			c-0.3-0.2-0.5-0.3-0.6-0.4l-0.8-0.4C13.3,7.6,12.8,7.3,12.2,7.1z M12.3,7.6c0,0.3,0,0.5,0,0.8c0.1,0.4,0.2,0.8,0.4,1.1l0.1,0.2
			c0.3,0,0.6,0.1,0.9,0.1c-0.2-0.3-0.5-0.6-0.7-0.9l-0.1-0.2C12.7,8.3,12.5,7.9,12.3,7.6z M13.7,8.7C13.9,8.8,14,8.9,14.1,9l0.3,0.2
			c0.2,0.1,0.4,0.3,0.6,0.4l0.2,0.1c0,0,0,0,0,0c0.3,0,0.5-0.1,0.8-0.1c-0.5-0.3-1-0.5-1.6-0.7C14.1,8.8,13.9,8.8,13.7,8.7z
			 M12.2,8.6c0,0.2-0.1,0.4-0.2,0.6L12,9.4c0,0,0,0.1,0,0.1c0.2,0,0.4,0.1,0.7,0.1C12.4,9.3,12.3,8.9,12.2,8.6z M15.4,8.8
			c-0.1,0.1-0.1,0.1-0.2,0.1c0.4,0.1,0.7,0.3,1,0.5c0.1,0,0.3-0.1,0.4-0.2c0.1-0.1,0.1-0.3,0-0.4C16.3,9.3,15.8,9.1,15.4,8.8z
			 M7.5,5.8c-1.3-0.1-2.7,0.1-4,0.3L2.8,6.2C2.1,6.4-0.1,6.9,0.6,7.6c0,0,0,0,0,0l0.1,0C0.9,7.1,1.9,7.1,2.4,7C2.6,7,2.8,7,3,6.9
			l0.3-0.1l0.1-0.1c1-0.4,2.2-0.5,3.3-0.5l0.3,0c1.5,0,3,0,4.4,0.2c0.2,0,0.4,0.1,0.7,0.1c0,0,0,0,0,0c1.1,0.2,2.2,0.6,3.2,1.2
			l0.3,0.2c0.5,0.3,1.2,0.8,1.1,1.4C16.9,9.2,17,9.1,17.1,9c0.5-0.7-0.9-1.4-1.4-1.7c-0.7-0.4-1.3-0.7-2.1-0.9
			C12.5,6,11.3,5.9,10.2,6C9.3,6,8.4,5.8,7.5,5.8z M12.2,6.7l0,0.1C12.6,7,13,7.2,13.5,7.4l0.8,0.5c0.4,0.2,0.7,0.4,1.1,0.6l0.3,0.2
			c0.3,0.2,0.6,0.3,0.8,0.1c-0.4-0.5-1.2-0.9-1.5-1c-0.7-0.4-1.4-0.7-2.2-0.9C12.6,6.8,12.4,6.7,12.2,6.7z M11.1,2
			C9.8,1.3,8.5,1.6,7.2,2.1C6.7,2.4,6.3,2.6,5.8,2.8C5,3.2,4.1,3.4,3.3,3.8C2.6,4.2,1.9,4.5,1.3,5c-0.5,0.3-1,0.8-1.2,1.4
			c-0.1,0.4,0,0.7,0.2,1c0-0.3,0.2-0.5,0.5-0.7c0,0,0,0,0,0C1.5,6.2,2,5.7,2.5,5.3c0.7-0.5,1.4-1,2.2-1.3c0.7-0.3,1.5-0.5,2.3-0.5
			c0.3,0,0.7,0.1,0.9,0.4c0,0.1,0,0.3-0.1,0.2c-0.2-0.4-1-0.3-1.4-0.3C6,3.7,5.5,3.9,5,4.1C5.7,4,6.4,4,6.8,4.3c0.4-0.1,0.6,0,1,0.1
			l0.4,0.2c0,0,0.1,0,0.1,0l0,0c0.2,0,0.7,0.1,0.4-0.1c-0.1-0.1-0.4-0.1-0.5,0c-0.1,0-0.1-0.2,0-0.2c0.3-0.1,1,0.1,0.7,0.5
			C8.7,5.2,8.3,5,8.1,4.9L7.8,4.7C7.6,4.6,7.3,4.5,7,4.5c0.1,0.1,0.1,0.2,0.2,0.3c0,0.1,0,0.3-0.1,0.2C7.1,4.8,7,4.7,6.8,4.6
			c0,0-0.1,0-0.1,0C6.1,4.1,4.8,4.3,4.2,4.5L4.1,4.5C3.2,5,2.4,5.7,1.6,6.3l0.2-0.1c1.8-0.5,3.7-0.8,5.6-0.7c0.6,0,1.3,0.1,1.9,0.2
			c0.6,0.1,1.1,0,1.7,0c1.5,0,3.2,0.3,4.5,1.1l0.5,0.3c0.6,0.4,1.4,1,1.4,1.6c0.3-0.3,0.5-0.6,0.5-1c0.3-1.1-0.5-2.2-1.2-3
			c-0.3-0.4-0.7-0.9-1-1.3c0,1.2-2,1-2.7,0.4C12.2,3.3,11.9,2.5,11.1,2z M8.2,6.6C7.6,6.8,7,7.1,6.5,7.5C6.1,7.8,5.7,8.1,5.3,8.4
			l0.1,0c0.3,0.1,0.4,0.4,0.7,0.2c0.2-0.1,0.4-0.3,0.6-0.4c0.1,0,0.1,0,0.2,0C7.4,7.8,7.7,7.1,8.2,6.6z M8.7,6.4
			C8.7,6.4,8.7,6.4,8.7,6.4L8.5,6.5C7.9,7,7.6,7.7,7.1,8.3l0.1,0.1l0.1,0.1c0.1,0.1,0.1,0.1,0.3,0.1C7.6,8.3,7.7,8.1,7.8,7.9
			c0.4-0.6,0.9-0.9,1.3-1.5L8.7,6.4z M9.5,6.4l-0.2,0l0,0C9.2,6.6,9,6.8,8.8,7L8.7,7.1C8.4,7.5,7.5,8.2,7.8,8.6c0.1,0,0.1,0,0.2,0
			C8.1,8.3,8.4,8,8.5,7.8C8.9,7.4,9.2,6.9,9.5,6.4z M8.1,6.4c-0.4,0-0.7,0-1.1,0C6.1,6.9,5.3,7.6,4.4,8L4.1,8.1
			C3.5,8.4,2.7,8.6,2.2,8C1.9,8,1.6,8,1.4,7.9c-0.1,0-0.2,0.1-0.3,0.1c0.6,0.3,1.2,0.4,1.6,0.5c0.5,0.1,1,0.1,1.5,0.1
			c0.2,0,0.5-0.1,0.7-0.1c0.5-0.3,1-0.7,1.5-1.1C7,6.9,7.5,6.6,8.1,6.4z M6.6,6.4L6,6.5C5.2,6.9,4.4,7.3,3.6,7.6
			C3.2,7.8,2.8,7.9,2.4,8C3,8.5,4.1,8,4.7,7.6C5.4,7.2,6,6.8,6.6,6.4z M5.4,6.5C4.6,6.6,3.8,6.7,3,7.1C3,7.1,2.9,7.1,2.9,7.2l0,0
			L2.1,7.6C2,7.6,1.8,7.7,1.7,7.7c0.2,0,0.3,0.1,0.5,0c0,0,0,0,0,0c0.6,0,1.2-0.3,1.7-0.5C4.4,7,4.9,6.8,5.4,6.5z M2.2,7.3l-0.3,0
			c-0.4,0-0.8,0.1-1,0.4C1.3,7.7,1.7,7.5,2.2,7.3z M14.6,5.2L14.6,5.2c0.2,0.1,0.3,0.4,0.2,0.6c-0.1,0.2-0.3,0.2-0.5,0.1
			c-0.1,0,0-0.3,0-0.2c0.1,0.1,0.3,0.2,0.4,0l0,0l0,0c0-0.1-0.1-0.1-0.1-0.1C14.6,5.4,14.6,5.2,14.6,5.2L14.6,5.2z M10.5,3.8
			c0.7,0.1,1.3,0.3,1.9,0.8l0.1,0.1c0.2,0.2,0.5,0.5,0.2,0.7c-0.4,0.4-1.3-0.3-1.6-0.5c-0.3-0.2-0.5-0.5-0.7-0.9
			C10.4,3.9,10.5,3.8,10.5,3.8z M10.7,4.1c0.4,0.6,1,1,1.6,1.1c0.3,0,0.4-0.1,0.2-0.3c-0.1-0.2-0.3-0.3-0.5-0.4
			C11.6,4.3,11.1,4.2,10.7,4.1z M9.8,0.5C9.1,0.8,8.5,1.2,7.9,1.6c1.5-0.4,3.1-0.3,4.2,1c0.5,0.6,0.8,1.2,1.6,1.4
			c0.3,0.1,0.7,0.1,1,0.1c0.4,0,1-0.2,0.9-0.7c-0.2-0.2-0.3-0.4-0.5-0.6C15,2.7,15,2.6,14.9,2.5c-0.3-0.3-0.8-0.6-1.3-0.6
			c-0.2,0-0.4,0-0.5,0.1c-0.3,0.2-0.1,0.7,0,1c0.2,0.3,0.6,0.5,1,0.5c0.2,0,0.5-0.1,0.4-0.4c0-0.1-0.2-0.3-0.3-0.3
			c-0.1,0,0-0.3,0-0.2c0.3,0.2,0.6,0.7,0.3,1c-0.4,0.4-1.1-0.1-1.4-0.4c-0.3-0.4-0.5-1.1-0.1-1.4c0.4-0.4,1.1-0.1,1.5,0.2
			c-0.1-0.2-0.3-0.4-0.4-0.6c-0.2-0.3-0.6-0.6-0.9-0.7c0,0.2,0,0.3-0.1,0.5c-0.2,0.2-0.4,0.2-0.7,0.2c-0.3,0-0.5,0.1-0.7,0.1
			C11.3,1.5,9.7,1.1,9.8,0.5z M8.1,2.2c0.7-0.8,2.9-0.4,3.4,0.5c0.1,0.2,0.1,0.4-0.1,0.6c-0.3,0.3-0.9,0.2-1.3,0.1L9.8,3.3
			C9.4,3.2,8.4,3,8.1,2.6c0,0.2,0,0.3,0.1,0.4C8.6,3.4,9,3.6,9.5,3.7c0.1,0,0.1,0.2,0,0.2l-0.1,0C8.7,3.7,7.4,2.9,8.1,2.2z
			 M10.4,2.3C10,2.1,9.5,2,9,2.1c-0.2,0-0.6,0.1-0.8,0.2c0,0-0.1,0.1-0.1,0.1C8.4,2.6,9.1,2.9,9.3,3c0.5,0.2,1,0.3,1.6,0.3l0.1,0
			c0.3,0,0.6-0.1,0.4-0.4C11.2,2.6,10.7,2.4,10.4,2.3z M13,0.5c-0.6-0.3-1.4-0.4-2.1-0.3c-0.3,0-0.6,0.1-0.8,0.2
			C9.7,0.7,10.4,0.9,10.8,1l0.1,0c0.3,0.1,0.6,0.1,0.9,0.1C11.9,1.1,12,1,12.1,1c0.1,0,0.2,0,0.3,0C12.7,1.1,13.3,0.9,13,0.5z"/>
	</g>
	
		<linearGradient id="Shape_00000146480609303306575290000008710692964924261019_" gradientUnits="userSpaceOnUse" x1="-616.3419" y1="419.3339" x2="-616.3419" y2="418.3339" gradientTransform="matrix(120.5871 0 0 -60.5352 74383.4062 25384.6855)">
		<stop  offset="0" style="stop-color:#FFF2E0"/>
		<stop  offset="1" style="stop-color:#FFE1BD"/>
	</linearGradient>
	
		<path id="Shape_00000075876895620195761510000003118999317288436124_" style="fill-rule:evenodd;clip-rule:evenodd;fill:url(#Shape_00000146480609303306575290000008710692964924261019_);" d="
		M110.6,13.6c0.1,0,0.2,0,0.3,0c0.5,0,0.9,0.1,1.1,0.4c0.2,0.3,0.2,0.7,0.2,1.3l0,0.3c-0.1,0.9-0.3,3.8-0.5,6.9l-0.5,7.9
		c0,0.1,0,0.3,0,0.4c-0.1,0.8,0.1,1.5,0.3,2.1l0.2,0.7c0.1,0.4,0.2,0.7,0,0.9c-0.1,0.1-0.2,0.2-0.5,0.2c-0.5,0-1.4-0.4-1.8-1.1
		c-0.7,0.6-1.6,0.9-2.3,0.9c0,0-0.1,0-0.1,0c-1.6-0.1-2-2.4-2.3-7.2c-0.2-2.8,0-6.3,0.2-8.7l0.2-3c0.1-1.3,0.8-1.5,1.2-1.5
		c0.2,0,0.4,0,0.6,0.1l0.4,0.1c0.8,0.2,1.1,0.4,1.4,0.9c0.2,0.3,0.1,1-0.1,2.2l-0.2,1.4c-0.1,0.6-0.2,1.3-0.4,2.1
		c-0.2,1.3-0.3,3.1-0.4,4.9l0,0.5c0,1.9,0.1,3,0.1,3.2l0,0l0,0c0.1-0.1,0.3-0.4,0.5-1.7l0-0.2c0.1-0.8,0.3-2.4,0.5-4.2l0.2-2.3
		l0.4-5l0-0.2C109.4,14,109.7,13.6,110.6,13.6z M117.7,13.2c0.3,0,0.5,0.1,0.9,0.3l0.8,0.4c0.7,0.3,1.5,0.9,1.4,1.7
		c-0.1,0.5-0.7,1.4-1.2,2.1l-0.7,1c-0.1,0.1-0.1,0.1-0.1,0.2l-0.1,0.2c-0.2,0.3-0.3,0.5-0.6,0.6l-0.1,0c-0.2,0-0.4-0.1-0.8-0.2
		c-0.7-0.3-0.9-1.1-0.8-1.6c-0.5,0.1-1.5,0.6-1.8,1.6c-0.2,0.6,0.4,1.4,1.1,2.3l0.9,1.1c0.6,0.7,1.2,1.5,1.4,2.2
		c0.8,2.1-0.1,5.8-0.6,7.1c-0.5,1.3-2.5,2.3-3,2.4c0,0-0.1,0-0.1,0c-0.7,0-1.3-0.7-2-2.2c-0.4-0.9-0.6-1.9-0.6-2.9
		c0-1,0.3-1.9,0.6-2.4c0.6-0.9,1.3-1.3,1.7-1.4l0.1,0c0,0,0,0,0.1,0l-0.2-0.4l-0.5-0.8c-0.7-1.2-1.1-2.2-1.2-4.1
		c0-1.9,2.8-4.9,4.2-6.2l0.1-0.1C117,13.5,117.3,13.2,117.7,13.2z M114.3,26c0,0.1-0.1,0.1-0.1,0.2l-0.2,0.3c-0.3,0.4-0.6,1-0.7,1.8
		c-0.2,1.4,0.7,3.1,1.3,3.4c0.3-0.1,0.6-1.8,0.5-3.6C114.9,27.3,114.6,26.6,114.3,26z M31.8,1c0.2,0,0.4,0,0.5,0.1
		c0.6,0.2,0.7,0.9,0.8,2.3l0.1,2.5c0,0.6,0.1,1.3,0.1,2l0,0.5c0.2,2.5,0.9,6.9,1.6,11.5l1.6,10.2c0.1,0.8,0.2,1.6,0.3,2.3l0.3,2.1
		c0.8,6.2,1.3,11.2,1.3,12.6c0,0.6-0.1,1-0.3,1.3c-0.1,0.1-0.2,0.2-0.3,0.2l0,0.4c0,0.6,0,1.8,0,3.4c-0.1,2.6-0.5,3.7-0.5,3.8
		c0,0.1-0.1,0.1-0.1,0.1l-0.1,0c0,0,0,0,0,0c-0.1,0-0.2-0.1-0.2-0.2l-0.3-2.3l-0.1,0.1c-0.1,0.1-0.2,0.2-0.3,0.4
		c-0.6,0.9-1,1.7-1,1.7c0,0.1-0.1,0.1-0.1,0.1l0,0c0,0,0,0,0,0c-0.1,0-0.2-0.1-0.2-0.2l-0.2-1.6c-0.1,0.8-0.2,1.7-0.3,2.4
		c-0.3,1.5-1.3,3.8-1.4,3.9c0,0.1-0.1,0.1-0.2,0.1c0,0,0,0-0.1,0c-0.1,0-0.2-0.1-0.1-0.3l0.1-0.4c0.1-0.5,0.3-1.2,0.4-1.9l0.1-0.5
		l0.1-0.7l0,0.2c0,0.1-0.1,0.2-0.2,0.2c-0.1,0-0.2,0-0.2-0.1l0-0.1c0,0-0.5-3.3-0.3-8l0.1-1.9c0.1-3.6,0.2-6.2-0.3-9.8l-0.3-2.2
		c-0.5-3.4-0.9-6.2-1.1-6.5c0,0,0,0,0,0c-0.2,0-0.7,0.3-1.3,0.6l-0.9,0.5c-1.2,0.7-2.2,1.1-2.2,1.1c0,0-0.1,0-0.1,0c0,0-0.1,0-0.1,0
		c-0.1,0-0.1-0.1-0.1-0.2l0-0.2l-0.4,0.3c-0.2,0.1-0.4,0.3-0.7,0.5c-0.4,0.3-0.8,0.5-1.2,0.7l-0.8,0.3c-0.3,0.1-0.6,0.3-0.7,0.4
		c-0.2,0.3-0.7,1.1-1,1.6c0.3-0.1,0.7-0.2,1.2-0.3c0.3,0,0.5-0.1,0.7-0.1c0.6,0,0.8,0.2,0.9,0.4c0.1,0.1,0,0.3-0.1,0.4L24,35
		c-0.2,0.2-0.7,0.5-1,0.7c0.7,0.2,0.8,0.3,0.8,0.4c0,0.1,0,0.2,0,0.3l0,0c-0.1,0.1-0.5,0.4-1.3,0.8l-2.7,1.6c0,0-0.1,0-0.1,0.1
		c-0.4,0.3-1.1,1.3-2.1,3.2l-2.3,4.1c-0.2,0.4-0.4,0.8-0.7,1.2L14,48.2c-2.8,5-4.7,6.7-7.1,6.7c-0.7,0-1.5-0.2-2.4-0.5
		c-2.1-0.7-3.7-2.6-4.1-4.8c-0.4-2.3,0.6-4.7,2.8-6.7c4.9-4.3,11.6-7.4,12.2-7.7l0.1-0.2l0.2-0.3c0.5-0.8,1.4-2.6,3.2-6.6l0.2-0.4
		c0.5-1.1,1-2.6,1.7-4.4l1.7-4.8c0.4-1.1,0.8-2.2,1.2-3.3l0.7-1.8C26.8,6.8,29.5,1,31.8,1z M13.3,40.9l-0.5,0.3
		c-1.6,1-4.5,2.9-6.5,5.2c-1.1,1.2-1.5,2.3-1.2,3c0.2,0.5,0.8,0.8,1.4,0.8c0.5,0,1-0.2,1.3-0.5C9.5,47.6,12.3,42.6,13.3,40.9z
		 M27.8,42.4c0.3,0,0.6,0.1,0.9,0.2l0.5,0.2c0.1,0,0.5,0.2,0.5,0.6c0,0.1,0,0.3-0.2,0.5c-0.1,0.1-0.2,0.1-0.3,0.2l-0.1,0
		c-0.1,0.1-0.3,0.2-0.6,0.6L28.4,45c-0.8,1.2-1.9,2.6-2.3,2.8c-0.1,0.1-0.2,0.1-0.2,0.1c-0.1,0-0.1,0-0.2-0.1
		c-0.1-0.1-0.1-0.2,0-0.3l0.1-0.4c0-0.2,0.1-0.4,0-0.6l0-0.1l-0.1-0.1c-0.3-0.6-0.5-1.1,0.4-2.6C26.6,42.8,27.1,42.4,27.8,42.4z
		 M59.5,0.2c0.2,0,0.4,0.1,0.6,0.3c0.2,0.2,0.5,0.7,0.5,1.8c-0.1,1.8-0.5,4.8-0.7,6.1c0.7-0.2,1.4-0.2,2.1-0.2
		c1.3,0,2.4,0.2,3.2,0.5l0.8,0.3c0.9,0.3,1.8,0.5,2.5,0.7l0.4,0.1c0.2,0,0.4,0.1,0.5,0.3c0.2,0.3,0.1,0.7,0,1.3
		c-0.3,1-1.1,1.2-2.2,1.2l-0.2,0c-0.3,0-0.6,0-1.1,0l-1.1-0.1l-1.2-0.1c-0.6,0-1.2-0.1-1.7-0.1c-0.5,0-0.9,0-1.2,0.1l-0.2,0
		c-0.9,0.1-1,0.4-1.2,1.8L59,14.6c-0.1,0.6-0.2,1.3-0.2,2.3l-0.1,2.2c-0.1,1.6-0.2,3.5-0.6,6L58,25.6c-0.5,3.6-0.5,6.3-0.6,8.3
		l0,1.9c0,0.4,0,0.8,0,1.1c-0.1,1.9-0.7,2.3-1.3,2.4C56,39.4,56,39.7,56,40l-0.1,0.9c-0.1,0.6-0.2,1-0.5,1.2
		c-0.1,0.1-0.3,0.1-0.4,0.1c-0.4,0-0.7-0.4-0.8-0.8L54,41.1c-0.1-0.4-0.3-0.5-0.4-0.7l-0.1-0.1c-0.1-0.1-0.2-0.2-0.4-0.4
		c-0.4-0.6-0.4-5.7,0-11.7l0.1-1.9c0-0.6,0.1-1.2,0.2-1.9l0.5-6.3c0.2-2.3,0.3-4.2,0.2-4.5l0,0c0,0-0.1,0-0.1,0
		c-0.8,0-3.1,0.8-4.1,1.2l-0.4,0.2c-0.2,0.1-0.3,0.1-0.4,0.1c-0.2,0-0.2-0.1-0.3-0.1c-0.1-0.2-0.1-0.4-0.1-0.8l0.1-0.7
		c0.2-1.4,0.5-2.9,0.9-3.1c0.6-0.4,3.8-0.8,4.6-0.9l0.1-0.3c0.1-0.3,0.3-0.8,0.4-1.5c0.3-1.3,0.3-3.3,0.3-3.3c0-0.1,0-0.1,0.1-0.2
		c0,0,0.1,0,0.1,0l0,0l0.2,0c0.1,0,0.3,0,0.5,0c0.1,0,0.2,0,0.2,0c0.2-0.1,0.9-1.1,1.5-2l1-1.7c0,0,0,0,0-0.1
		C59.1,0.3,59.3,0.2,59.5,0.2z M49.2,15.9c0.2,0,0.3,0.2,0.3,0.3l0.1,0.1c0.1,0.2,0.3,0.5,1,0.6c0.1,0,0.1,0,0.2,0l0.1,0l0.6-0.1
		c0.1,0,0.1,0,0.2,0c0.2,0,0.4,0,0.6,0.2c0.1,0.1,0.2,0.3,0.2,0.5c0,0.3-0.1,0.9-0.3,1.7L51.9,21c-0.2,1.2-0.5,2.8-0.9,4.7L50,32.8
		c-0.3,1.8-0.5,3.1-0.4,3.4c0.2-0.1,0.6-0.7,0.6-1.5l0-0.2c0-0.5,0.1-1,0.3-1.2c0.1-0.1,0.2-0.1,0.3-0.1c0.4,0,0.6,0.5,0.6,1.5
		c0.1,2.2-1.2,4.3-2.6,5.5c-0.6,0.5-1,0.7-1.4,0.7c-0.9,0-1.3-1-1.7-2.7c-0.3-1.1-0.3-2.2-0.4-3l0-0.3l-0.1,0.2
		c-0.4,1-1,2.3-1.9,3.6c-0.6,1-1.6,2.1-2.6,2.1c-1,0-1.6-1.1-1.9-3.3c-0.6-4.9-0.2-11.9,0.5-15.8l0.3-1.5c0.5-2.7,0.8-3,2.6-3.8
		c0.6-0.2,1.2-0.4,1.7-0.4c0.4,0,0.7,0.1,0.8,0.3c0.3,0.6-0.1,2.3-0.8,5.3l-0.6,2.5c-0.1,0.3-0.2,0.7-0.3,1c-0.6,2.4-1,4.6-1,6.3
		c-0.1,1.7,0.2,2.5,0.4,2.6c0.2-0.1,0.9-1.1,2-4.7l0.1-0.3c0.9-2.7,1.7-5.9,2.1-8.3l0.4-2.3c0.3-1.4,0.5-1.9,1-2l0.1,0
		c0.2,0,0.3-0.1,0.5-0.2l0.1-0.1c0.1-0.1,0.2-0.2,0.4-0.2L49.2,15.9z M73.6,13.7c0.2,0,0.4,0.1,0.6,0.3c0.7,0.7,1,2.9,0.9,7.3l0,0.9
		c0,1.5-0.1,3.1-0.2,4.8l-0.1,2.2c-0.3,3.5-0.6,6.6-0.7,7c-0.1,0.4-0.5,0.6-1,0.6l-0.1,0c-0.3,0-0.5-0.1-0.8-0.2
		c-0.6-0.2-0.5-1.3-0.3-3.3l0.1-1.4c0-0.3,0.1-0.6,0.1-0.9l0.1-1.1c0-0.4,0.1-0.8,0.1-1.2l0.1-1.4l0.1-1.5c0.1-1.9,0.1-3.6,0.1-4.3
		l-0.1,0.2c-0.4,1-1.2,3.8-1.9,7.4l-0.1,0.4c-0.3,1.3-0.4,2.5-0.6,3.5l-0.4,2.6c-0.2,1.1-0.3,1.6-0.6,1.7l-0.2,0l-0.2,0.1
		c-0.3,0.1-0.5,0.2-0.9,0.2c-0.2,0-0.5,0-0.7-0.1c-0.7-0.2-0.7-1.3-0.5-3.3l0.3-2.2c0.1-0.5,0.1-1.1,0.2-1.7
		c0.2-2.6,0.3-5.2,0.3-7.8c-0.4,0.3-1,0.6-1.2,0.7l0,0.3c0,0.9,0,3-0.5,6.2c-0.6,3.9-2.3,7.2-3.8,7.2c-0.1,0-0.1,0-0.2,0
		c-0.9-0.2-1.3-1-1.6-2.4l-0.4-1.5c-0.1-0.2-0.1-0.4-0.2-0.6c-0.7-2.7-0.8-7.8,0.2-11.4l0.2-0.6c0.8-2.6,1.3-3.8,2.6-3.8
		c0.3,0,0.6,0,0.9,0.1c1.3,0.3,1.7,2.1,2,3.4l0.2,0.9c0,0.1,0,0.2,0.1,0.3c0.6-0.1,1.4-0.9,1.9-4l0.1-0.8c0.1-0.6,2.4-1.7,2.8-1.7
		c0,0,0.1,0,0.1,0c0.3,0.1,0.3,0.5,0.1,1.7l-0.3,2.3c-0.2,1.2-0.2,2.5-0.2,3.5l0.4-1.6c0.1-0.4,0.2-0.7,0.3-1.1l0.3-1
		c0.6-2.2,1.3-4.5,2.5-4.8C73.4,13.7,73.5,13.7,73.6,13.7z M62.4,20.6C62,21.4,61.1,24,61,27.1c-0.1,3,0.3,4.7,1.2,4.9l0.1,0
		c0.5,0,1.2-2.6,1.2-5.7l0-1.1l0-1.5c0-0.6,0-1-0.2-1.2c-0.1-0.1-0.1-0.1-0.2-0.2l-0.2-0.2c-0.2-0.2-0.4-0.4-0.4-0.8l-0.1-0.4
		L62.4,20.6z M29.4,18.1l-0.3-4l-0.3,1c-0.5,2-1.3,4.8-2,6.8c-0.3,0.8-0.6,1.5-0.9,2.3l-1.1,2.7c-0.1,0.2-0.2,0.4-0.2,0.6l0.4-0.4
		c0.7-0.7,1.9-1.8,3.2-2.3l0.8-0.3c0.8-0.4,1.2-0.6,1.3-0.7l-0.1-0.1c-0.2-0.2-0.5-0.5-0.5-1.2l-0.1-1.1
		C29.5,20.5,29.5,19.3,29.4,18.1z M78.7,19.2l-0.1,0.4c-0.3,1.1-0.7,3-0.7,5l0,1.3c0,1.7,0.1,2.7,0.3,2.8l0,0c0.4,0,1.7-1.2,1.9-4.1
		c0.1-1.3-0.2-1.9-0.4-2.4l-0.3-0.6c-0.1-0.2-0.2-0.4-0.3-0.7l-0.3-1.3C78.8,19.4,78.7,19.3,78.7,19.2z M101,18.3
		c-0.1,0-0.1,0-0.2,0c-0.6,0.1-1.5,1.8-1.4,6.2c0.1,3.5,0.8,4.2,1,4.3l0.1-0.1c0.4-0.6,1.7-2.7,1.7-6c0-2.4-0.2-3.8-0.7-4.2
		C101.4,18.3,101.2,18.3,101,18.3z M77.5,34.6c-0.1,0-0.1,0-0.2,0c-0.9-0.2-1.3-2.6-1.4-4.1c-0.2-2.2-0.2-4.7,0-6.9l0.1-0.6
		c0.4-2.6,1.5-8.8,4.1-8.8c0.1,0,0.1,0,0.2,0c0.6,0.1,1.2,0.4,1.6,0.9c0.5,0.6,0.7,1.4,0.8,2.3l0,0.6c0.1,1.2,0.1,2.4,0.1,3l0.1-0.2
		c0.2-0.3,0.5-0.8,0.8-1.5c0.8-1.7,1.6-3.2,2.6-4.3c0.4-0.5,1-1,1.5-1c0.2,0,0.5,0.1,0.5,0.7c0,0.6-0.1,2.3-0.2,3.4l0.4-0.5
		c0.3-0.5,0.7-1.1,1-1.6l0.3-0.5c0.3-0.4,0.8-1.3,1.4-1.3c0.1,0,0.2,0,0.3,0.1c0.1,0.2,0.2,0.4,0.2,0.8l-0.1,3.6c0,0.4,0,0.8,0,1.1
		l0.2-0.5c0.2-0.4,0.4-0.8,0.5-1.2c0.1-0.1,0.1-0.3,0.2-0.4l0.5-1.5c0.5-1.5,0.9-2.3,1.4-2.3l0,0l0,0c0.3,0,0.6,0.4,0.8,2.6
		c0.1,1.4,0.1,3.3,0,5.1L95,23.5c-0.1,1.9-0.3,3.7-0.4,4.8l0.1-0.3c0.1-0.2,0.2-0.4,0.2-0.6c0.4-1,0.9-3.4,1.3-5.5
		c0.1-2.4,0.5-4.4,1.3-6.1c0.7-1.5,1.2-1.8,1.9-1.8l0.1,0l0.1,0c0.1,0,0.2,0,0.2,0c0.1,0,0.2,0,0.3,0c0.1,0,0.2,0,0.3-0.1l0.1,0
		c0.2-0.1,0.4-0.1,0.7-0.1c0.3,0,0.7,0.1,1.1,0.3c0.7,0.4,1.2,1.8,1.5,3c0.3,1.6,0.5,3.4,0.5,5.2c0,1.6-0.4,4.5-1.1,7.2
		c-1,3.8-2,4.9-2.7,5.1c-0.2,0.1-0.4,0.1-0.6,0.1l-0.2,0c-1.6,0-2.6-1.7-3.2-5.5l-0.1,0.4c0,0.1-0.1,0.3-0.1,0.4
		c-0.9,3-2.1,4.4-2.9,4.4l-0.1,0c-0.8-0.1-1.2-1.4-1.4-4.3c-0.1-2.4,0.1-6,0.2-7.6l-0.1,0.2c-0.2,0.4-0.5,1.1-0.8,2
		c-0.6,1.7-1,3.8-1.3,5.4L90,31.3c-0.1,0.4-0.1,0.7-0.2,1c-0.3,1.4-1.4,2.2-2,2.2c-0.1,0-0.2,0-0.3-0.1c-0.3-0.2-0.3-0.7-0.1-1.8
		l0.4-1.9c0.1-0.4,0.1-0.8,0.2-1.2c0.4-2.3,0.6-5.1,0.7-8.4c-0.9,2.1-2,6-2.6,8.6l-0.2,0.8c-0.6,2.6-1.3,2.9-1.8,2.9l-0.2,0
		c-0.1,0-0.2,0-0.3-0.1l0-0.1c-0.2-0.3-0.2-0.8,0-3.4c0.1-2.3,0.6-6,0.8-7.6c-0.2,0.2-0.4,0.5-0.7,0.8l-0.4,0.3
		c-0.6,0.5-0.7,0.9-0.9,2.3l-0.3,2C81.4,30.8,78.9,34.6,77.5,34.6z"/>
	<path id="Shape_00000141457437859879116660000005555402764606838183_" class="st7" d="M31.8,0.8c0.2,0,0.4,0,0.6,0.1
		c0.8,0.3,0.9,1.2,1,3.1l0.1,1.8c0,0.5,0.1,1,0.1,1.6l0,0.4c0.2,2,0.7,5.6,1.3,9.6l0.6,3.9l1.2,8.1c0.2,1,0.3,2,0.4,2.9l0.3,2.1
		c0.8,6.2,1.3,11.3,1.3,12.6c0,1-0.3,1.4-0.6,1.6l0,0.7c0,0.6,0,1.5,0,2.7l0,0.3c-0.1,2.6-0.5,3.8-0.5,3.9c-0.1,0.2-0.2,0.3-0.4,0.3
		l0,0c-0.2,0-0.3-0.2-0.4-0.4l-0.2-1.8l-0.1,0.1c-0.6,0.8-1,1.7-1,1.7c-0.1,0.2-0.2,0.3-0.4,0.3l-0.1,0c-0.2,0-0.3-0.1-0.3-0.3
		c0,0.3-0.1,0.5-0.1,0.7c-0.3,1.5-1.3,3.8-1.4,3.9c-0.1,0.2-0.2,0.3-0.4,0.3c0,0-0.1,0-0.1,0c-0.2-0.1-0.3-0.2-0.3-0.4l0-0.1
		c0.1-0.2,0.3-1.2,0.4-2l0-0.2c0-0.2,0-0.4,0.1-0.6l0,0c-0.2,0-0.4-0.2-0.4-0.3l-0.1-0.5l-0.1-0.5l-0.1-0.5
		c-0.1-1.3-0.2-3.5-0.1-6.1l0.1-2.3c0.1-3.4,0.1-5.9-0.2-9.2l-0.1-0.6c-0.5-3.9-1.1-7.7-1.3-8.5c-0.2,0.1-0.7,0.3-1.1,0.6l-0.9,0.5
		c-1.2,0.7-2.1,1.1-2.2,1.1c-0.1,0-0.1,0-0.2,0c-0.1,0-0.2,0-0.2-0.1c-0.1,0-0.1-0.1-0.1-0.2l-0.4,0.3c-0.1,0.1-0.2,0.2-0.3,0.3
		c-0.4,0.3-0.8,0.5-1.2,0.7l-0.8,0.3c-0.3,0.1-0.5,0.2-0.6,0.3l-0.1,0.2c-0.2,0.2-0.4,0.6-0.6,1c0.2,0,0.4-0.1,0.7-0.1
		c0.3,0,0.5-0.1,0.7-0.1c0.7,0,1,0.3,1.1,0.5c0.1,0.2,0,0.5-0.2,0.7l-0.1,0.1c-0.2,0.1-0.4,0.3-0.7,0.5c0.4,0.2,0.5,0.3,0.5,0.4
		c0.1,0.2,0,0.3-0.1,0.5l0,0c-0.2,0.2-0.6,0.5-2.1,1.3l-1.8,1.1c-0.1,0-0.2,0.1-0.2,0.1c-0.5,0.3-1.3,1.8-2.7,4.2l-1.7,3
		c-0.4,0.6-0.8,1.3-1.2,2.1l-0.4,0.7c-2.7,4.5-4.5,6.1-6.9,6.1c-0.7,0-1.6-0.2-2.5-0.5c-2.1-0.8-3.8-2.7-4.2-4.9
		c-0.5-2.4,0.6-4.9,2.9-6.9l0.5-0.5c4.7-4,10.8-6.8,11.7-7.2l0.2-0.2c0.4-0.6,1.4-2.5,3.5-7.2l0.2-0.5c0.4-0.9,0.8-2.1,1.3-3.5
		l2.1-5.8c1.3-3.5,2.6-7.1,4-10.2c1-2.1,1.8-3.7,2.6-4.9C30.1,1.5,31,0.8,31.8,0.8z M31.8,1.2c-2.1,0-4.8,5.7-7.2,12l-0.3,0.8
		c-2,5.3-3.8,10.8-5,13.7l-0.4,0.9c-2.6,5.9-3.4,6.9-3.4,6.9l-0.8,0.4c-2,0.9-7.3,3.7-11.5,7.3c-5.1,4.5-2.5,9.8,1.2,11.1
		c0.9,0.3,1.6,0.5,2.4,0.5c2.4,0,4.2-1.9,7-6.6l1.4-2.4c2.5-4.5,3.6-6.6,4.4-7l2.6-1.5c0.8-0.4,1.4-0.8,1.5-0.9
		c0.2-0.2-1.1-0.4-1.1-0.4l0.9-0.6c0.3-0.2,0.6-0.4,0.7-0.5c0.2-0.2,0.1-0.4-0.6-0.4c-0.2,0-0.4,0-0.7,0.1l-0.4,0.1
		c-0.8,0.2-1.3,0.4-1.3,0.4l0.5-0.9l0.3-0.4l0.3-0.4c0.1-0.2,0.2-0.3,0.3-0.4c0.4-0.5,1.7-0.7,2.6-1.4l0.5-0.4
		c0.2-0.2,0.4-0.3,0.6-0.4l0.4-0.3l-0.1,0.6l0.5-0.2c0.4-0.2,1-0.5,1.7-0.9l0.9-0.5c0.7-0.4,1.1-0.6,1.4-0.6c0.1,0,0.2,0,0.2,0.1
		c0.2,0.3,0.7,3.8,1.2,7.6l0.2,1.2c0.5,3.7,0.4,6.4,0.3,10.5l-0.1,1.3c-0.2,4.8,0.3,8,0.3,8l0.6-2.8l-0.1,2.2c0,0.6-0.1,1.3-0.1,1.7
		c-0.1,0.7-0.3,1.5-0.4,1.9l-0.1,0.4l0.2-0.5c0.1-0.4,0.3-0.9,0.5-1.4l0.2-0.5c0.2-0.5,0.3-1,0.4-1.4c0.2-1.1,0.4-3,0.5-3.9l0-0.6
		l0.4,3.8l0.1-0.1c0.1-0.3,0.4-0.9,0.8-1.5l0.1-0.2c0.4-0.6,0.6-0.7,0.7-0.7c0,0,0.1,0,0.1,0l0.3,2.5l0.1-0.2
		c0.1-0.4,0.4-1.5,0.4-3.3l0-0.3c0-0.8,0-1.4,0-2l0-0.8c0-0.8,0-1.2,0-1.2l0.1,0c0.2,0,0.5-0.2,0.5-1.3l0-0.3
		c-0.1-1.8-0.6-7.5-1.6-14.4l-0.5-3.1l-1.6-10.6c-0.7-4.3-1.2-8.3-1.4-10.6l0-0.3c-0.4-4.6-0.1-6.2-1-6.6C32.1,1.2,32,1.2,31.8,1.2z
		 M8.8,50c0,0,0.1,0.1,0,0.1l-0.1,0.1c-0.2,0.2-0.7,0.8-1.5,1c-0.2,0.1-0.4,0.1-0.7,0.1c-0.9,0-1.8-0.4-2.3-0.9c0,0,0-0.1,0-0.1
		c0,0,0.1,0,0.1,0c0.6,0.7,1.9,1,2.8,0.8c0.9-0.3,1.4-1,1.5-1C8.7,50,8.8,50,8.8,50z M13.8,40.3L13,41.7c-0.5,1-1.3,2.3-2.1,3.7
		l-0.3,0.5l-0.4,0.7c-0.8,1.3-1.6,2.4-2.3,3.2c-0.4,0.4-0.9,0.6-1.4,0.6c-1.5,0-2.9-1.5-0.4-4.2C9.1,42.9,13.8,40.3,13.8,40.3z
		 M12.7,41.5l-0.5,0.3c-1.6,1.1-4,2.8-5.8,4.7c-1,1.1-1.5,2.1-1.2,2.8c0.2,0.4,0.7,0.7,1.2,0.7c0.5,0,0.9-0.2,1.1-0.5
		C9.1,47.7,11.5,43.6,12.7,41.5z M9.8,48.8c0,0,0.1,0.1,0,0.1l-0.3,0.5c0,0-0.1,0-0.1,0c0,0,0,0-0.1,0c0,0-0.1-0.1,0-0.1l0.3-0.5
		C9.7,48.7,9.7,48.7,9.8,48.8z M27.8,42.2c0.4,0,0.8,0.2,1.2,0.3l0.3,0.1c0.2,0.1,0.6,0.3,0.6,0.7c0,0.1,0,0.4-0.3,0.7
		c-0.1,0.1-0.2,0.2-0.3,0.2l-0.1,0c-0.1,0-0.2,0.2-0.6,0.7l-0.1,0.1c-0.7,1.2-1.9,2.6-2.4,2.9c-0.1,0.1-0.2,0.1-0.3,0.1
		c-0.1,0-0.3-0.1-0.4-0.2c-0.1-0.2-0.1-0.3-0.1-0.5l0-0.1c0-0.2,0.1-0.5,0.1-0.6l-0.2-0.4c-0.3-0.6-0.4-1.2,0.5-2.7
		C26.4,42.7,27,42.2,27.8,42.2z M27.8,42.6c-0.5,0-1,0.3-1.6,1.2c-1,1.7-0.6,2.1-0.3,2.6c0.2,0.5-0.2,1.2-0.1,1.2c0,0,0.1,0,0.1,0
		c0.4-0.2,1.4-1.4,2.1-2.6l0.1-0.2c0.4-0.7,0.6-0.9,0.8-0.9l0.1,0c0.1,0,0.1-0.1,0.2-0.2c0.3-0.3,0-0.6-0.3-0.7l-0.4-0.2
		C28.4,42.7,28.1,42.6,27.8,42.6z M59.5,0l0.1,0c0.2,0,0.4,0.1,0.6,0.3c0.4,0.4,0.6,1.1,0.5,2c-0.1,1.7-0.4,4.4-0.6,5.8
		C60.7,8,61.3,8,61.9,8c1.3,0,2.5,0.3,3.2,0.5l0.8,0.3c0.9,0.3,1.8,0.5,2.5,0.7l0.4,0.1c0.2,0,0.5,0.1,0.7,0.4
		c0.2,0.3,0.2,0.8,0,1.5c-0.3,1.2-1.4,1.4-2.5,1.4l-0.3,0l-0.4,0c-0.2,0-0.5,0-0.8,0l-2.1-0.1c-0.6,0-1.2-0.1-1.7-0.1
		c-0.4,0-0.8,0-1.2,0.1c-0.6,0.1-0.8,0.2-0.9,0.3c-0.1,0.2-0.2,0.6-0.3,1.1l-0.1,0.6c-0.1,0.7-0.2,1.5-0.3,2.6l-0.1,2.2
		c-0.1,1.4-0.2,3.1-0.5,5.2l-0.1,1c-0.5,3.9-0.6,6.8-0.6,8.8l0,1.7c0,0.3,0,0.6,0,0.8c0,1-0.2,1.6-0.5,2c-0.3,0.4-0.6,0.5-0.8,0.5
		c0,0.1-0.1,0.2-0.1,0.4l-0.1,1c-0.1,0.6-0.2,1.2-0.7,1.3c-0.2,0.1-0.3,0.1-0.5,0.1c-0.7,0-1-0.7-1.1-1.2c-0.1-0.3-0.2-0.4-0.3-0.5
		l-0.3-0.3c0-0.1-0.1-0.1-0.2-0.2L52.9,40c-0.1-0.2-0.3-0.7-0.3-3.3l0-0.9c0-1.6,0.1-4.1,0.3-7.6l0.1-1.9c0-0.6,0.1-1.2,0.2-1.9
		l0.5-5.8c0.2-2.2,0.3-4.2,0.2-4.7c-0.9,0-3.5,1-4.2,1.3l-0.1,0c-0.2,0.1-0.3,0.1-0.5,0.1c-0.2,0-0.3-0.1-0.5-0.2
		c-0.2-0.2-0.2-0.5-0.1-0.8l0.2-1c0.5-2.8,0.8-3,0.9-3.1c0.6-0.4,3.4-0.8,4.5-0.9l0.1-0.3c0.1-0.3,0.2-0.8,0.4-1.4
		c0.3-1.3,0.3-3.2,0.3-3.2c0-0.1,0.1-0.2,0.2-0.3C55.3,4.1,55.4,4,55.5,4l0,0l0.2,0c0.1,0,0.3,0,0.5,0l0.1,0
		c0.3-0.3,1.3-1.9,1.8-2.7l0.6-0.9c0,0,0,0,0-0.1C59,0.1,59.2,0,59.5,0z M59.5,0.4c-0.1,0-0.3,0.1-0.3,0.2l-1.2,1.9
		c-0.6,1-1.3,1.9-1.5,2c-0.1,0-0.2,0-0.3,0c-0.4,0-0.7-0.1-0.7-0.1l0,0.3c0,0.6-0.1,1.8-0.3,2.8l0,0.2c-0.3,1.4-0.6,2-0.6,2
		l-0.8,0.1c-1.2,0.2-3.4,0.5-3.9,0.8c-0.3,0.2-0.7,2.2-0.8,3.1L49,14.5c0,0.3,0,0.6,0.2,0.6c0.1,0,0.1,0,0.2,0l0.4-0.2
		c1-0.4,3.3-1.2,4.2-1.2c0.1,0,0.2,0,0.3,0.1c0.2,0.2,0.1,2.2-0.1,5.1l-0.5,6.2l-0.2,2.3l-0.1,1.1C52.9,35,53,39.4,53.3,39.8
		c0.3,0.4,0.6,0.4,0.9,1.2c0.2,0.6,0.4,0.9,0.8,0.9c0.1,0,0.2,0,0.3-0.1c0.3-0.1,0.4-0.6,0.4-1.2l0.1-0.7c0.1-0.4,0.1-0.8,0.3-0.8
		l0.1,0c0.4-0.1,1-0.4,1-2.2c0-0.2,0-0.4,0-0.7l0-0.7l0-1.2l0-0.5c0-1.9,0.1-4.5,0.5-7.9l0.1-0.5c0.8-5.8,0.6-8.9,1-10.8l0.1-0.7
		c0.3-1.4,0.4-1.7,1.6-1.8c0.4,0,0.8-0.1,1.2-0.1c0.9,0,2,0.1,3.4,0.2l0.5,0c0.5,0,0.9,0,1.3,0c1.3,0,2-0.2,2.2-1.1
		c0.3-1.1,0.1-1.3-0.3-1.4l-0.6-0.1c-0.7-0.2-1.6-0.4-2.5-0.7l-0.6-0.2c-0.9-0.3-2-0.5-3.3-0.5c-0.8,0-1.5,0.1-2.3,0.3l0.1-0.8
		c0.2-1.8,0.5-4.1,0.6-5.6C60.4,1,59.9,0.4,59.5,0.4z M49.2,15.7c0.3,0,0.4,0.2,0.5,0.4l0.1,0.2c0.1,0.2,0.2,0.4,0.9,0.5
		c0,0,0.1,0,0.2,0l0.1,0l0.3,0c0.2,0,0.3,0,0.5,0c0.2,0,0.5,0,0.8,0.3c0.2,0.2,0.2,0.4,0.2,0.6l0,0.2c0,0.3-0.1,0.9-0.3,1.6L52.1,21
		c-0.2,1.2-0.5,2.8-0.9,4.7l-1,6.3c-0.1,0.4-0.1,0.8-0.2,1.2L50,33.7l0-0.1c0.1-0.2,0.1-0.3,0.2-0.4c0.1-0.1,0.3-0.2,0.4-0.2
		c0.7,0,0.8,1,0.8,1.7c0.1,2.3-1.3,4.5-2.7,5.6c-0.6,0.5-1.1,0.7-1.5,0.7c-1.1,0-1.5-1.4-1.9-2.8c-0.2-0.8-0.3-1.6-0.3-2.4
		c-0.4,0.9-0.9,1.9-1.6,3c-1,1.5-1.9,2.2-2.8,2.2c-1.1,0-1.8-1.2-2.1-3.5C38,32.8,38.3,26.1,39,22.2l0.2-0.8l0.3-1.3
		c0.5-2.5,0.8-2.9,2.7-3.7c0.6-0.2,1.3-0.4,1.8-0.4c0.5,0,0.8,0.1,1,0.4c0.2,0.3,0.2,0.9,0,2l0,0.2c-0.1,0.7-0.4,1.7-0.6,2.8l-0.8,3
		c-0.1,0.3-0.2,0.7-0.3,1c-0.6,2.4-1,4.6-1,6.2c-0.1,1.5,0.1,2.1,0.2,2.3l0.1-0.1c0.3-0.5,1-1.9,1.9-4.9c0.8-2.7,1.6-5.7,2-8l0.3-2
		c0.1-0.7,0.2-1.2,0.4-1.6l0.1-0.2c0.1-0.3,0.4-0.7,0.8-0.8l0.1,0c0.2,0,0.3-0.1,0.4-0.2l0.1-0.1c0.1-0.1,0.3-0.2,0.5-0.3L49.2,15.7
		z M49.2,16.1L49.2,16.1c-0.3,0-0.4,0.4-0.9,0.5l-0.1,0c-0.5,0-0.7,0.7-1,2.3L47,20.4c-0.9,5.2-3.6,14-4.6,14c0,0,0,0-0.1,0
		c-0.9-0.4-0.7-3.9,0.4-8.8l0.4-1.5c1.1-4.3,1.8-6.9,1.4-7.6c-0.1-0.2-0.3-0.2-0.6-0.2c-0.5,0-1.1,0.2-1.6,0.4l-0.4,0.2
		c-1.6,0.7-1.7,1.2-2.4,5c-0.8,4.1-1.2,10.9-0.5,15.7c0.3,2.2,0.9,3.1,1.7,3.1c0.7,0,1.6-0.8,2.4-2c1.6-2.4,2.2-4.6,2.4-5.1l0-0.1
		l0,0.2c-0.1,0.6-0.2,2.5,0.3,4.6c0.4,1.7,0.8,2.5,1.5,2.5c0.3,0,0.8-0.2,1.3-0.6c1.4-1.2,2.7-3.3,2.5-5.3c-0.1-1-0.3-1.3-0.4-1.3
		c-0.2,0-0.4,0.4-0.4,1l0,0.1c0,1.1-0.5,1.9-0.9,1.9c-0.1,0-0.1,0-0.1-0.1c-0.1-0.3,0.2-2.6,0.7-5.6l0.9-5.5
		c0.7-4.4,1.4-6.9,1.4-7.7c0-0.4-0.2-0.5-0.6-0.5c-0.3,0-0.6,0.1-0.9,0.1c-0.1,0-0.2,0-0.3,0C49.2,16.9,49.5,16.2,49.2,16.1z
		 M46.9,37.5l0.2,0.7c0.1,0.6,0.3,1.1,0.6,1.2c0.2,0,0.5-0.2,0.8-0.6c0,0,0.1-0.1,0.1,0c0,0,0.1,0.1,0,0.1c-0.4,0.5-0.7,0.7-0.9,0.7
		c0,0-0.1,0-0.1,0c-0.4-0.1-0.6-0.8-0.8-1.6l-0.1-0.4c0-0.1,0-0.1,0.1-0.1C46.8,37.4,46.8,37.4,46.9,37.5z M73.6,13.5
		c0.3,0,0.5,0.1,0.7,0.3c0.7,0.7,1,2.8,1,7.1l0,0.4c0,1.7-0.1,3.9-0.3,6.2l-0.1,1.9c-0.2,3.4-0.5,6.4-0.7,6.8
		C74,36.7,73.5,37,72.9,37c-0.3,0-0.6-0.1-0.9-0.2c-0.7-0.3-0.6-1.3-0.4-3.3l0.2-1.7c0-0.1,0-0.3,0-0.4l0.1-1.3
		c0.2-2.8,0.4-5.8,0.4-7.5l-0.1,0.4c-0.4,1.4-1,3.7-1.6,6.6C70.3,30.9,70.1,32,70,33l-0.3,2.4c-0.1,0.4-0.1,0.8-0.2,1.1l-0.1,0.2
		c-0.1,0.4-0.3,0.7-0.6,0.8c-0.1,0-0.1,0-0.2,0l-0.1,0c-0.3,0.1-0.6,0.2-1,0.2c-0.3,0-0.5,0-0.8-0.1c-0.8-0.2-0.8-1.2-0.8-1.6
		c0-0.5,0-1,0.1-1.7l0.3-2.9c0-0.4,0.1-0.9,0.1-1.3c0.2-2.4,0.3-4.9,0.3-7.4c-0.3,0.2-0.6,0.4-0.8,0.5l0,0.4c0,1,0,3.1-0.5,6.1
		c-0.3,2-0.9,3.8-1.6,5.2c-0.8,1.4-1.6,2.2-2.4,2.2c-0.1,0-0.1,0-0.2,0c-1.1-0.2-1.4-1.2-1.8-2.6L59.2,33l-0.2-0.6
		c-0.7-2.8-0.9-7.8,0.2-11.5l0.3-1c0.3-1,0.6-1.8,0.9-2.4c0.5-0.8,1-1.2,1.8-1.2c0.3,0,0.6,0,1,0.1c1.3,0.3,1.8,2,2.1,3.4l0.2,1.2
		c0.5-0.2,0.9-1,1.1-1.7c0.2-0.8,0.4-1.7,0.5-2.2l0.1-0.7c0-0.1,0.1-0.5,1.2-1.1l0.4-0.2c0.4-0.2,1.1-0.5,1.4-0.5c0.1,0,0.1,0,0.2,0
		c0.4,0.1,0.4,0.7,0.4,1l0,0.1c0,0.3-0.1,0.6-0.1,1l-0.3,1.9c0,0.1,0,0.2,0,0.3c-0.1,0.5-0.1,1-0.2,1.5l0.3-1.2
		c0.6-2.6,1.4-5.1,2.7-5.5C73.4,13.5,73.5,13.5,73.6,13.5z M73.6,13.9c-0.1,0-0.2,0-0.2,0c-1.2,0.4-1.9,3.1-2.4,5l-0.4,1.7l-0.8,3.3
		l0-0.6c0-0.9,0-2.7,0.2-4.3l0.2-1.3c0.3-1.7,0.4-2.7,0.2-2.7c0,0,0,0,0,0c-0.4,0-2.5,1-2.6,1.5l-0.1,0.8c-0.2,1.4-0.7,4.2-2.2,4.2
		c-0.3,0-0.3-4.1-2.2-4.6c-0.3-0.1-0.6-0.1-0.9-0.1c-1.3,0-1.7,1.1-2.6,4.2c-1.1,3.6-0.9,8.4-0.3,11l0.2,0.8
		c0.6,2.3,0.7,3.7,1.8,3.9c0,0,0.1,0,0.1,0c1.2,0,3-2.9,3.6-7l0.1-0.7c0.5-3.9,0.4-6,0.4-6l0.2-0.1c0.3-0.1,1.1-0.5,1.5-1l0,1.2
		c0,1.4,0,3.8-0.3,6.7l0,0.4c-0.4,4.3-1,6.8-0.1,7.1c0.3,0.1,0.5,0.1,0.7,0.1c0.5,0,0.9-0.2,1.2-0.2c0.5-0.1,0.5-2.8,1.4-7.3
		l0.1-0.4c0.9-4.7,2-8.4,2.4-8.4l0,0c0.3,0.1-0.1,6.9-0.3,9.9l0,0.6c-0.2,2.7-0.6,4.6,0,4.9c0.2,0.1,0.5,0.1,0.7,0.1
		c0.4,0,0.8-0.1,0.9-0.5c0-0.1,0.1-0.5,0.2-1l0.1-0.9c0.1-1.5,0.3-3.6,0.5-5.8l0.1-1.7l0.1-1.3c0.1-1.3,0.1-2.5,0.1-3.5l0-0.5
		C74.9,16.4,74.6,13.9,73.6,13.9z M117.7,13c0.4,0,0.7,0.1,1.2,0.4l0.6,0.3c0.7,0.3,1.7,0.9,1.5,1.9c-0.1,0.6-0.8,1.6-1.5,2.6
		l-0.5,0.7l-0.1,0.2l-0.1,0.1c-0.2,0.3-0.4,0.7-0.9,0.7c-0.2,0-0.5-0.1-0.9-0.3c-0.5-0.3-0.8-0.7-0.9-1.3c0-0.1,0-0.1,0-0.2
		c-0.5,0.2-1.2,0.6-1.4,1.4c-0.2,0.6,0.5,1.4,1.2,2.3l0.3,0.3c0.8,0.9,1.6,1.8,1.9,2.8c0.8,2.2-0.1,5.9-0.6,7.3
		c-0.5,1.4-2.6,2.4-3.2,2.5c0,0-0.1,0-0.1,0c-0.8,0-1.4-0.7-2.2-2.3c-0.4-0.8-0.6-1.7-0.6-2.5l0-0.3l-0.1,1.1
		c-0.1,0.7,0.1,1.4,0.3,2l0.2,0.7c0.1,0.5,0.2,0.8,0,1.1c-0.1,0.1-0.3,0.3-0.7,0.3c-0.5,0-1.3-0.4-1.9-1c-0.7,0.5-1.6,0.8-2.3,0.8
		l-0.1,0c-0.5,0-0.9-0.3-1.2-0.7c-0.3-0.4-0.5-0.9-0.7-1.5c-0.3-1.1-0.4-2.7-0.6-4.8l0-0.4c0-0.5,0-1-0.1-1.5l0-0.5l-0.1,0.6
		c-0.2,1.1-0.4,2.4-0.7,3.5l-0.2,0.7c-0.8,2.7-1.6,4.3-2.6,4.6c-0.3,0.1-0.6,0.1-0.8,0.1c-1,0-1.7-0.6-2.3-1.7
		c-0.3-0.7-0.6-1.6-0.8-2.7l-0.1-0.3l-0.1,0.3c-0.9,2.9-2.2,4.2-3,4.2c0,0-0.1,0-0.1,0C92.6,34.3,92.1,33,92,30
		c-0.1-1.6,0-3.6,0.1-5.3l0.1-1.1L92,23.7l-0.3,0.7c0,0.1-0.1,0.2-0.1,0.3c-0.5,1.5-0.9,3.3-1.2,4.9l-0.4,2
		c-0.1,0.3-0.1,0.6-0.2,0.8C89.8,33,89.5,33.6,89,34c-0.4,0.4-0.9,0.7-1.3,0.7c-0.1,0-0.3,0-0.4-0.1C87,34.4,87,33.9,87,33.5l0-0.1
		c0-0.3,0.1-0.7,0.2-1.2l0.2-1.2c0.1-0.5,0.2-1,0.3-1.5c0.3-1.9,0.5-4,0.7-6.5l0-0.7l-0.2,0.5c-0.7,2.1-1.5,4.8-2,6.9l-0.2,0.9
		c-0.5,2.2-1.1,3.1-2,3.1l-0.2,0c-0.2,0-0.4-0.1-0.5-0.2l-0.1-0.1c-0.2-0.3-0.2-1-0.1-3.6c0.1-2.1,0.5-5.2,0.7-7
		c-0.1,0.1-0.2,0.2-0.3,0.3l-0.3,0.3c-0.6,0.5-0.6,0.8-1,2.6l-0.2,1.2c0,0.1,0,0.2-0.1,0.3c-0.3,1.5-1,3.3-1.9,4.8L80,32.7
		c-0.5,0.8-1.6,2.2-2.5,2.2c-0.1,0-0.2,0-0.2,0c-0.8-0.2-1.3-1.6-1.6-4.2c-0.3-2.4-0.2-5.2,0.1-7.5l0.1-0.4c0.5-3.4,1.7-8.5,4.3-8.5
		c0.1,0,0.1,0,0.2,0c0.7,0.1,1.3,0.4,1.7,1c0.5,0.6,0.8,1.4,0.8,2.4c0.1,1,0.1,2.2,0.1,3l0.2-0.3c0.1-0.2,0.3-0.5,0.4-0.8l0.4-0.9
		c0.7-1.4,1.3-2.5,2.2-3.5c0.7-0.7,1.2-1.1,1.7-1.1l0.1,0c0.3,0,0.7,0.3,0.7,0.9l0,0.3c0,0.6-0.1,1.5-0.2,2.3c0.3-0.5,0.6-1,0.9-1.4
		l0.3-0.6c0.3-0.6,0.9-1.3,1.5-1.3c0.2,0,0.3,0.1,0.5,0.2c0.2,0.2,0.3,0.5,0.3,1l-0.1,3.4l0,0.3l0.2-0.4l0.2-0.4
		c0.1-0.2,0.2-0.4,0.2-0.7l0.4-1.2c0.5-1.5,1-2.5,1.6-2.5c0,0,0.1,0,0.1,0l0.1,0c0.4,0.1,0.7,0.6,0.9,2.5l0,0.2
		c0.1,1.4,0.1,3.3,0,5.2L95.2,23c-0.1,1.3-0.2,2.6-0.3,3.7c0.3-1.2,0.8-3.2,1.2-4.9c0.1-2.4,0.5-4.5,1.3-6.2c0.4-0.8,0.7-1.3,1-1.5
		c0.4-0.3,0.7-0.4,1-0.4l0.2,0c0.1,0,0.2,0,0.2,0c0.1,0,0.2,0,0.3,0c0.1,0,0.2,0,0.3-0.1l0.1,0c0.2-0.1,0.5-0.1,0.8-0.1
		c0.4,0,0.7,0.1,1.2,0.3c1,0.5,1.7,2.9,1.9,5.4l0,0.3l0.1-1l0.2-2.7l0-0.3c0.1-0.5,0.3-1.5,1.4-1.5c0.2,0,0.4,0,0.6,0.1l0.4,0.1
		c0.8,0.2,1.2,0.4,1.5,1c0.2,0.3,0.1,0.9,0,1.9l-0.3,1.8c-0.1,0.6-0.2,1.3-0.4,2.1c-0.4,2.7-0.5,6.5-0.3,7.9l0.1-0.2
		c0.1-0.2,0.1-0.5,0.2-0.8l0-0.2c0.2-0.9,0.4-3,0.5-5.2l0.2-2.3l0.3-3.9l0-0.2c0.2-1.8,0.4-2.6,1.6-2.6c0.1,0,0.2,0,0.3,0
		c0.4,0,0.9,0.1,1.2,0.4c0.3,0.3,0.3,0.8,0.2,1.4l-0.1,0.4c-0.1,0.7-0.2,2.1-0.3,3.9c0.2-0.8,0.8-1.9,1.8-3.1
		c0.9-1.1,1.8-2.1,2.4-2.6l0.1-0.1C116.9,13.3,117.2,13,117.7,13z M101.4,13.9c-0.4,0-0.7,0.2-1.1,0.2c-0.1,0-0.2,0-0.3,0l-0.5,0
		l-0.1,0c-0.5,0-0.9,0.3-1.5,1.7c-0.7,1.4-1.2,3.3-1.3,6.1l-0.3,1.2c-0.4,1.7-0.8,3.5-1.1,4.3L95,27.8c-0.5,1.4-0.7,1.6-0.7,1.6
		l0.2-2.3c0.1-1.2,0.2-2.8,0.4-4.4l0.1-0.8c0.2-3.7,0.1-7.4-0.6-7.5l0,0c-0.6,0-1.4,2.8-1.9,4.1l-0.2,0.4c-0.3,0.6-0.5,1.2-0.7,1.6
		L91.2,21l0.2-5.7c0-0.5-0.1-0.7-0.3-0.7c-0.3,0-0.7,0.5-1.2,1.2l-0.1,0.2c-0.1,0.3-0.3,0.5-0.5,0.8L89,17.4
		c-0.6,0.9-1.1,1.7-1.1,1.7l0.2-2l0.1-1.3c0-0.4,0-0.7,0-1c0-0.4-0.1-0.5-0.3-0.5c-0.3,0-0.8,0.3-1.4,1c-0.8,0.9-1.5,2-2.2,3.4
		l-0.4,0.8c-0.9,1.8-1.4,2.2-1.4,2.2l0-1.5c0-0.6,0-1.2-0.1-1.9l0-0.4c0-0.1,0-0.3,0-0.4c-0.1-1.9-1.1-2.9-2.2-3c0,0-0.1,0-0.1,0
		c-1.9,0-3.2,3.6-3.9,8.3l0,0.3c-0.7,5,0.1,11,1.2,11.3c0,0,0.1,0,0.1,0c1.2,0,3.6-3.6,4.2-6.9l0.3-2c0.3-1.5,0.4-1.9,1.1-2.5
		l0.1-0.1c0.9-0.8,1.3-1.4,1.4-1.6l0,0L84.3,24c-0.1,0.8-0.2,1.6-0.3,2.5L84,27.3l-0.1,0.9c-0.1,0.6-0.1,1.2-0.1,1.7l-0.1,1.2
		c-0.1,1.9,0,2.2,0.2,2.2l0.2,0c0.4,0,1-0.2,1.5-2.5l0.3-1.2c0.7-3.1,2-7.6,3-9.3c-0.1,3.5-0.3,6.7-0.8,9.3l-0.1,0.6
		c-0.4,2.3-0.9,3.8-0.5,4.1c0,0,0.1,0,0.2,0c0.5,0,1.5-0.8,1.8-2.1l0.1-0.4c0.3-1.6,0.8-4.9,1.6-7.3l0.2-0.5c0.7-2,1.1-2.5,1.2-2.5
		l-0.1,1.8c0,0.7-0.1,1.5-0.1,2.4l0,0.8l0,0.5c0,1,0,2,0,2.9c0.2,3.2,0.7,4,1.2,4.1l0,0c0.5,0,1.8-1.1,2.7-4.3
		c0.1-0.5,0.3-1,0.4-1.6l0.1-0.4l0,0.3c0.6,4.4,1.5,6.1,3,6.2l0.1,0c0.2,0,0.5,0,0.7-0.1c2-0.6,3.5-8.6,3.6-12
		c0.1-3.5-0.7-7.4-1.8-8C101.9,13.9,101.6,13.9,101.4,13.9z M110.6,13.8l-0.2,0c-0.6,0-0.9,0.4-1,2.2l-0.2,2
		c-0.2,3.1-0.6,7.9-0.9,9.5c-0.3,1.6-0.5,2.1-0.8,2.1c-0.1,0-0.1,0-0.2-0.1c-0.3-0.2-0.3-5.1,0.2-8.5l0.1-0.6l0.2-0.9l0.2-1.4
		c0.3-1.7,0.5-2.6,0.3-2.9c-0.2-0.5-0.6-0.6-1.6-0.9c-0.2-0.1-0.4-0.1-0.5-0.1c-0.6,0-1,0.4-1,1.3l-0.2,3.4
		c-0.1,1.2-0.1,2.6-0.2,4.1l0,0.7c0,1.2,0,2.4,0,3.5l0.1,1c0.2,3.8,0.6,6,2,6l0.1,0c0.7,0,1.6-0.4,2.4-1c0.4,0.7,1.3,1.2,1.8,1.2
		c0.2,0,0.3,0,0.3-0.1c0.3-0.5-0.8-1.8-0.6-3.6l0.9-12.9c0.1-1.1,0.2-1.9,0.2-2.3l0-0.1c0.2-1.3,0-1.5-1-1.6
		C110.8,13.8,110.7,13.8,110.6,13.8z M117.7,13.4c-0.3,0-0.6,0.2-1,0.5l-0.4,0.3c-1.2,1.1-4.1,4.1-4,5.9c0,2,0.5,2.9,1.1,4l0.6,0.9
		c0.5,0.8,1,1.8,1.1,2.9c0.1,1.5-0.1,3.8-0.7,3.8c0,0-0.1,0-0.1,0c-0.6-0.3-1.6-2-1.4-3.6c0.2-1.5,1.2-2.3,1.1-2.4c0,0-0.1,0-0.1,0
		c-0.3,0-1,0.4-1.6,1.3c-0.7,1.1-0.9,3.4,0,5.1c0.8,1.7,1.4,2,1.8,2c0,0,0.1,0,0.1,0c0.4-0.1,2.4-1,2.8-2.2c0.5-1.2,1.4-4.9,0.6-7
		c-0.8-2.1-3.9-4.2-3.5-5.7c0.4-1.3,1.8-1.7,2.2-1.8l0.1,0l0,0.2c0,0.3,0,1.1,0.7,1.5c0.3,0.2,0.5,0.2,0.7,0.2
		c0.3,0,0.4-0.3,0.7-0.7l0.2-0.3c0.5-0.8,1.7-2.2,1.8-3c0.1-0.7-0.6-1.1-1.2-1.4l-0.7-0.3C118.3,13.5,118,13.4,117.7,13.4z
		 M108.9,32.9c0,0,0,0.1,0,0.1c-0.3,0.4-0.9,0.5-1.2,0.6l-0.1,0c-0.1,0-0.1,0-0.1-0.1c0-0.1,0-0.1,0.1-0.1c0.4,0,0.9-0.2,1.2-0.5
		C108.7,32.9,108.8,32.9,108.9,32.9z M105.5,26.6c0.1,0,0.1,0,0.1,0.1l0,0.7c0.1,2.1,0.4,5.5,1.2,6.1c0,0,0.1,0.1,0,0.1
		c0,0-0.1,0-0.1,0c0,0,0,0-0.1,0c-1.2-0.9-1.3-6.3-1.3-6.9C105.4,26.7,105.4,26.6,105.5,26.6z M62.5,20.2
		C62.5,20.2,62.5,20.2,62.5,20.2c0.1,0.1,0.1,0.3,0.2,1c0.1,0.7,0.5,0.7,0.8,1.1c0.2,0.2,0.2,0.6,0.2,1.2l0,0.3c0,0.4,0,0.9,0,1.6
		l0,0.6c0,2.4-0.6,6.2-1.4,6.2l0,0c-0.9-0.1-1.7-1.3-1.5-5.1C60.9,23.4,62.2,20.2,62.5,20.2z M62.3,21.4c-0.4,1.1-1,3.2-1.1,5.8
		c-0.1,2.8,0.3,4.5,1.1,4.7l0,0c0.1-0.2,0.4-0.7,0.7-2.1c0.2-1.1,0.3-2.6,0.3-3.7l0-0.9l0-1.5c0-0.6,0-0.9-0.1-1.1
		c0-0.1-0.1-0.1-0.2-0.2L63,22.4C62.7,22.2,62.4,22,62.3,21.4z M114.3,26.4l-0.2,0.2c-0.3,0.4-0.6,0.9-0.7,1.7
		c-0.2,1.3,0.6,2.7,1,3.1c0.1-0.1,0.2-0.5,0.3-1.2c0.1-0.7,0.1-1.5,0.1-2.1C114.7,27.4,114.5,26.9,114.3,26.4z M84.6,27.4
		c0.1,0,0.1,0.1,0.1,0.1l0,0.3c-0.1,1.1-0.2,2.9-0.2,3.2c0,0.1,0,0.1-0.1,0.1c-0.1,0-0.1,0-0.1-0.1l0-0.2c0-0.6,0.1-2.5,0.3-3.5
		C84.5,27.4,84.6,27.4,84.6,27.4z M57.5,20.7c0.1,0,0.1,0.1,0.1,0.1l0,0.4c0,0.6-0.1,1.4-0.2,2.3l-0.3,2.9c-0.1,1.2-0.2,2.2-0.2,2.8
		c0,0.1,0,0.1-0.1,0.1c-0.1,0-0.1,0-0.1-0.1c0-0.6,0.1-2,0.3-3.4l0.3-2.9c0.1-0.8,0.2-1.6,0.2-2.1C57.4,20.7,57.5,20.7,57.5,20.7z
		 M101,18.1c1,0,1.4,1.2,1.4,4.7c0,3.7-1.7,6.1-1.9,6.2c0,0,0,0-0.1,0c-0.3,0-1.1-0.8-1.2-4.5c-0.1-4,0.6-6.3,1.6-6.4
		C100.8,18.1,100.9,18.1,101,18.1z M78.7,18.4l0.3,1.5c0.1,0.3,0.1,0.6,0.2,0.9c0.2,1.1,1.2,1.3,1,3.8c-0.1,3-1.5,4.3-2.1,4.3
		c0,0,0,0-0.1,0c-0.4-0.1-0.5-0.7-0.5-2.5l0-0.7c0-0.3,0-0.7,0-1.1C77.7,21.4,78.7,18.4,78.7,18.4z M112,20.6L112,20.6l-0.6,8l0-0.3
		c0.1-0.6,0.3-1.1,0.6-1.5c0.5-0.8,1.2-1.3,1.7-1.4l-0.6-0.9C112.5,23.3,112,22.3,112,20.6z M78.9,20.9l-0.2-0.8l-0.1,0.6
		c-0.2,1.1-0.5,2.5-0.5,3.9l0,1.3c0,1.2,0,2.3,0.2,2.6l0.1,0c0.2-0.1,0.4-0.3,0.8-0.8c0.3-0.5,0.7-1.5,0.8-3
		c0.1-1.3-0.2-1.9-0.5-2.4L79.3,22C79.2,21.7,79,21.3,78.9,20.9z M101,18.5c0,0-0.1,0-0.1,0c-0.2,0-0.5,0.4-0.8,1.5l-0.1,0.3
		c-0.2,0.8-0.4,2.2-0.3,4.3l0,0.5c0.1,2.3,0.5,3.1,0.7,3.4l0.1-0.2c0.5-0.8,1.5-2.8,1.5-5.6c0-2.3-0.2-3.7-0.6-4.1
		C101.2,18.5,101.1,18.5,101,18.5z M29.1,12.8l0.5,6.5c0.1,1.3,0.2,2.5,0.2,2.8c0,1.2,0.6,1.4,0.7,1.5c0.1,0.1-0.1,0.3-2.3,1.2
		c-2.1,0.9-3.7,2.9-4,3.1l0,0c0,0,0,0,0,0c-0.2-0.1,1.2-3,2.4-6.2c0.3-0.8,0.6-1.8,0.9-2.8l0.3-1l0.3-1.2
		C28.7,14.6,29.1,12.8,29.1,12.8z M29.1,17.6l-0.2-2.3l-0.3,1c-0.5,1.8-1.1,4-1.7,5.6c-0.4,0.9-0.7,1.9-1.1,2.7l-0.8,2
		c0.8-0.7,1.8-1.6,3-2.1l0.4-0.2c0.8-0.3,1.2-0.5,1.4-0.7c-0.2-0.3-0.5-0.7-0.5-1.5l0-0.3C29.4,21.1,29.3,19.4,29.1,17.6z
		 M80.9,22.2c0.2,0.5,0.3,1.2,0.3,1.4c0,0-0.1,0.1-0.1,0.1l0,0c-0.1,0-0.1-0.1-0.1-0.1c0-0.2-0.1-0.8-0.2-1.3c0-0.1,0-0.1,0.1-0.1
		C80.8,22.1,80.9,22.2,80.9,22.2z M42.3,17.8c0,0.1,0,0.1-0.1,0.1c-1.2,0.5-1.6,2.7-1.7,4.2l-0.1,0.6c0,0,0,0.1-0.1,0.1l0,0
		c-0.1,0-0.1-0.1-0.1-0.1l0.1-0.8c0.2-1.5,0.5-3.6,1.8-4.2C42.2,17.7,42.2,17.7,42.3,17.8z M79.6,18.3c0.1,0,0.1,0,0.1,0.1
		c0.1,1,0.3,2.3,0.8,2.9c0,0,0,0.1,0,0.1c0,0,0,0-0.1,0c0,0-0.1,0-0.1,0c-0.6-0.8-0.8-2.6-0.8-3C79.5,18.3,79.6,18.3,79.6,18.3z
		 M64.3,19.6l0.1,0.2c0.1,0.2,0.1,0.4,0.1,0.4c0,0.1,0,0.1-0.1,0.1l0,0c0,0-0.1,0-0.1-0.1l0-0.2c0-0.1-0.1-0.3-0.1-0.4
		c0-0.1,0-0.1,0.1-0.1C64.2,19.5,64.3,19.6,64.3,19.6z M62.9,17.4c0.5,0.2,1,0.7,1.2,1.3c0,0.1,0,0.1-0.1,0.1l0,0c0,0-0.1,0-0.1-0.1
		c-0.2-0.6-0.6-1-1-1.1c-0.4-0.1-0.8,0-1.2,0.3c0,0-0.1,0-0.1,0c0,0,0-0.1,0-0.1C61.9,17.4,62.4,17.3,62.9,17.4z M101,14.8
		c0,0,0,0.1,0,0.1c-0.3,0.2-0.8,0.2-1.4,0.2c-0.4,0-1,1.1-1.2,1.8c0,0-0.1,0.1-0.1,0.1c0,0,0,0,0,0c-0.1,0-0.1-0.1-0.1-0.1l0.1-0.3
		c0.2-0.5,0.7-1.7,1.3-1.7l0.4,0c0.3,0,0.7,0,0.8-0.1C100.9,14.8,100.9,14.8,101,14.8z M118.5,14.3c0.1,0,0.1,0.1,0,0.1
		c0,0.1-0.1,0.1-0.1,0c-0.5-0.2-0.7-0.2-1.6,0.5c-1,0.9-1.5,1.5-1.5,1.5c0,0-0.1,0-0.1,0c0,0,0,0-0.1,0c0,0-0.1-0.1,0-0.1l0.1-0.2
		c0.2-0.2,0.6-0.8,1.4-1.4C117.6,14.1,117.9,14,118.5,14.3z M25.3,14.1c0.1,0,0.1,0.1,0.1,0.1l-0.5,1.4c0,0-0.1,0.1-0.1,0.1
		c0,0,0,0,0,0c-0.1,0-0.1-0.1-0.1-0.1l0.5-1.4C25.2,14.1,25.2,14.1,25.3,14.1z M101.9,14.8c0.2,0.1,0.4,0.4,0.4,0.5
		c0,0.1,0,0.1-0.1,0.1l0,0c0,0-0.1,0-0.1,0l0,0c0-0.1-0.2-0.3-0.3-0.4c0,0-0.1,0-0.1,0l0,0c-0.1,0-0.1,0-0.1-0.1
		c0-0.1,0-0.1,0.1-0.1C101.7,14.7,101.8,14.7,101.9,14.8z M31.1,2.4c0,0,0,0.1,0,0.1c-0.8,0.7-2.8,4.5-3.8,6.8l-0.5,1.2
		c-0.7,1.7-1,2.5-1,2.5c0,0-0.1,0.1-0.1,0.1c0,0,0,0,0,0c0,0-0.1-0.1-0.1-0.1l0,0c0,0,0.4-1.2,1.4-3.5L27.2,9c1.1-2.4,2.9-6,3.8-6.6
		C31,2.3,31.1,2.3,31.1,2.4z M51.1,11.1c0,0.1,0,0.1-0.1,0.1l-0.1,0c-0.3,0.1-0.5,0.1-0.5,0.4l-0.2,0.7c0,0.1,0,0.1,0,0.1
		c0,0-0.1,0.1-0.1,0.1l0,0c-0.1,0-0.1-0.1-0.1-0.1l0.2-0.6c0-0.1,0-0.2,0.1-0.2c0.1-0.3,0.3-0.4,0.5-0.5L51,11
		C51,11,51.1,11,51.1,11.1z M52.3,10.8c0.1,0,0.1,0,0.1,0.1c0,0.1,0,0.1-0.1,0.1L52,11l-0.2,0c0,0,0,0,0,0c0,0-0.1,0-0.1-0.1
		c0-0.1,0-0.1,0.1-0.1C51.9,10.8,52.3,10.8,52.3,10.8z M56.1,6.9c0.1,0,0.1,0.1,0.1,0.1l0,0.2c-0.2,0.9-0.7,3.2-0.9,3.3
		c-0.1,0.1-0.3,0.1-0.7,0.1l-0.8,0.1c-0.1,0-0.3,0-0.4,0.1l-0.2,0l0,0c0,0-0.1,0-0.1-0.1c0-0.1,0-0.1,0.1-0.1c0.2,0,0.5-0.1,0.8-0.1
		l0.8-0.1c0.2,0,0.4-0.1,0.4-0.1c0.1-0.1,0.3-0.9,0.5-1.7l0.1-0.4l0.1-0.4C55.9,7.5,56,7.2,56,6.9C56,6.9,56.1,6.8,56.1,6.9z"/>
	<g id="Group-13" transform="translate(63.9322, 33.1358)">
		<path id="Fill-128" class="st0" d="M11.2,6.1c0.1,0.2,0.1,0.4,0.1,0.5c0,0.2-0.2,0.3-0.4,0.4c0.2-0.3-0.1-0.5-0.7-0.7
			C9.7,6.2,8.8,5.8,7.8,5.5C7.6,5.4,7.4,5.3,7.2,5.3c-0.2,0-0.3-0.1-0.5-0.1c-0.1,0-0.1,0-0.2,0C6.4,5.1,6.2,5,6,5
			C5.9,5,5.8,5,5.6,5h0c-0.5,0-1-0.1-1.5,0h0C3.4,4.9,2.6,5,2,5.2c-1.4,0.3-1.6,0.7-1.4,1C0.4,6,0.2,5.8,0.1,5.7C0,5.5,0,5.3,0.1,5
			c0,0,0,0,0,0c0.8-0.6,2.3-0.8,4.7-0.6C6.1,4.5,7,4.7,7.7,4.9v0c0.4,0.1,0.7,0.2,1,0.3l0,0C9,5.3,9.2,5.4,9.4,5.5
			C10.4,5.9,10.8,5.9,11.2,6.1"/>
		<path id="Shape_00000161630340858732889730000014287911299508306088_" class="st5" d="M6.8,7.1C6.7,7.1,6.7,7,6.6,6.9
			C6.5,6.8,6.4,6.8,6.2,6.8l-0.1,0c0-0.4-0.3-0.8-0.4-1c0-0.1-0.1-0.4-0.1-0.5l0-0.2l0.2,0L6,5c0.1,0,0.3,0,0.4,0.1l0.2,0l0.2,0
			c0.1,0,0.3,0.1,0.5,0.1c0.2,0.1,0.4,0.1,0.6,0.2l0.5,0.2C9,5.9,9.6,6.2,10,6.3l0.1,0c0.7,0.2,0.9,0.4,0.7,0.7
			c-0.2,0.1-0.4,0.2-0.6,0.2c-0.2,0-0.4,0-0.6,0l-0.5,0c-0.3,0-0.5,0-0.8,0c-0.1,0-0.1,0-0.2,0C7.8,7.4,7.6,7,7.4,6.9
			C7.2,6.8,7.1,7.1,6.8,7.1z M0.9,6.3c-0.1,0-0.2-0.1-0.3-0.1c-0.2-0.2,0-0.7,1.4-1C2.6,5,3.4,4.9,4.2,4.9C4.1,5,4,5.1,3.9,5.2
			L3.8,5.3C3.8,5.4,3.7,5.5,3.7,5.6c0,0,0,0.1,0,0.1c0,0,0,0-0.1,0.1L3.5,5.9C3.4,6,3.3,6.1,3.3,6.1L3.2,6.2C3.1,6.4,3,6.5,3,6.6
			l0,0c-0.4-0.1-0.3,0.1-0.5,0c-0.3,0-0.6-0.1-0.9-0.2C1.3,6.4,1.1,6.4,0.9,6.3z"/>
		<path id="Fill-132" class="st2" d="M3.5,1.6c0.8-0.9,1.6-1.7,3.3-1.4C8.1,0.4,8.7,1,8.9,1.6C9.1,2.2,9.7,3.2,10.1,4
			c0,0.1,0.1,0.2,0.1,0.3C10.6,5,11,5.7,11.2,6.1c-0.3-0.3-0.8-0.3-1.7-0.6C9.2,5.4,9,5.3,8.7,5.2l0,0C8.4,5.1,8.1,5,7.7,4.9v0
			C7,4.7,6.1,4.5,4.9,4.5C2.5,4.3,0.9,4.4,0.1,5C0.3,4.7,0.6,4.4,1,4h0C1.4,3.5,2,3,2.6,2.5c0.1-0.1,0.1-0.1,0.2-0.2c0,0,0,0,0,0
			C3,2.1,3.3,1.8,3.5,1.6"/>
		<path id="Fill-140" class="st4" d="M3.8,7.6c0,0-0.2-0.2-0.2-0.5c0,0,0,0,0,0c0,0,0.1,0.2,0.3,0.2c0.3,0,0.5-0.2,1.1-0.2
			c0.1,0,0.2,0,0.2,0C5.2,7.4,5.5,7.6,5.5,8.1c0.1,0.5-0.1,0.8-0.1,1c0,0.1,0.2,0.3,0.3,0.8c0,0.6,0.1,0.4,0.3,0.7
			c0.1,0.3,0.3,0.5,0.2,1.1c0,0.5,0.2,1.6,0.2,1.6L4.7,15c0,0-0.2-0.7-0.3-1.2c-0.1-0.4,0.2-0.7,0.3-1.1c0.1-0.4,0-0.7-0.3-0.9
			c-0.3-0.2-0.2-0.3-0.2-0.6c0-0.1-0.1-0.3-0.2-0.5c-0.1-0.2-0.1-0.4-0.1-0.7c0-0.6,0-0.9-0.1-1.2c-0.1-0.3,0.1-0.5,0-0.9
			C3.7,7.7,3.8,7.7,3.8,7.6"/>
		<path id="Fill-144" class="st1" d="M6.1,6.8c0,0.1,0,0.1,0,0.2C6,7.3,5.8,7.2,5.3,7.2c-0.1,0-0.2,0-0.2,0C4.4,7.1,4.3,7.3,4,7.3
			c-0.2,0-0.3-0.1-0.3-0.2c0,0,0,0,0,0s0-0.1,0-0.3c0-0.2,0.1-0.4,0.3-0.4c0.2-0.1,0.3,0.3,0.5,0.4c0.2,0.1,0.1-0.1,0.1-0.4
			c0-0.4,0.6-0.5,1.2-0.6C5.8,6,6.1,6.4,6.1,6.8"/>
		<path id="Fill-146" class="st1" d="M3.7,5.8C3.7,5.8,3.7,5.7,3.7,5.8C3.7,5.7,3.7,5.7,3.7,5.8c0-0.1,0.1-0.4,0.2-0.6
			C4,5,4.2,5,4.2,5l1.4,0h0c0,0,0,0.5,0.1,0.8C5.1,5.9,4.5,6,4.5,6.4c0,0.4,0.1,0.6-0.1,0.4C4.3,6.7,4.1,6.3,4,6.4
			C3.8,6.4,3.7,6.6,3.7,6.8c0,0.2,0,0.3,0,0.3s0,0,0,0c0,0,0,0,0,0s0,0-0.1,0c0,0-0.1,0-0.1,0h0c-0.1,0-0.2,0-0.3,0
			C3.1,7.1,2.9,6.9,3,6.7c0-0.2,0.1-0.3,0.2-0.5C3.3,6.1,3.4,6,3.5,5.9c0,0,0,0,0,0c0,0,0,0,0,0C3.6,5.8,3.6,5.8,3.7,5.8"/>
		<path id="Fill-148" class="st1" d="M5.6,5L4.2,5C4.2,5,4,5,3.9,5.2C3.7,5.4,3.7,5.7,3.7,5.7s0,0,0,0c0,0,0-0.1,0-0.1
			c0-0.1,0.1-0.2,0.1-0.3C3.9,5.1,4,5,4.2,4.9h0C4.7,4.9,5.2,4.9,5.6,5"/>
		<path id="Fill-164" class="st1" d="M3.2,6.2C3.1,6.4,3,6.6,3,6.7C2.9,6.9,3.1,7.1,3.2,7.2c0,0-0.1,0-0.1-0.1C2.9,7,2.9,6.8,3,6.6
			C3,6.5,3.1,6.4,3.2,6.2"/>
		<path id="Fill-166" class="st9" d="M5.7,5.7C5.1,5.9,4.5,6,4.5,6.4c0,0.4,0.1,0.6-0.1,0.4C4.3,6.7,4.1,6.3,4,6.4
			C3.8,6.4,3.7,6.6,3.7,6.8c0,0.2,0,0.3,0,0.3S3.3,7.3,3.3,7.2C3.2,7.2,2.9,7,3,6.7c0.1-0.3,0.3-0.6,0.5-0.8
			c0.2-0.2,0.2-0.2,0.2-0.2s0.1-0.3,0.2-0.5C4,5,4.2,5,4.2,5l1.4,0l0,0.2L5.7,5.7z"/>
		<path id="Fill-168" class="st1" d="M5.3,7.2c0,0-0.5-0.1-0.7,0C4.4,7.2,4,7.4,4,7.4c-0.1,0-0.3-0.1-0.3-0.1l0,0.2l0.1,0.2
			c0,0-0.1,0.1-0.1,0.2c0,0.2,0,0.5,0,0.7c0,0.2,0,0.4,0.1,0.7c0,0.3,0,1,0.1,1.3c0,0.3,0.2,0.5,0.2,0.7c0,0.2,0.2,0.6,0.3,0.7
			c0.1,0.1,0.2,0.2,0.3,0.4c0,0.2,0,0.5-0.1,0.8c-0.1,0.3-0.1,0.4-0.1,0.6c0,0.2,0.1,0.8,0.2,1c0.1,0.2,0,0.2,0.1,0.2
			c0.1-0.1,1-1,1-1s0.7-0.5,0.7-0.7c0-0.1-0.1-0.6-0.1-0.6s-0.2,0.1-0.3,0c-0.1,0-0.2,0.3-0.4,0.2C5.4,12.9,5,12.6,5,12.4
			c0.1-0.2,0.3-0.4,0.1-0.6C5,11.7,4.8,11.4,5,11.2c0.2-0.2-0.1-0.4-0.4-0.3S3.9,10,4.2,10c0.3,0,0.5-0.1,0.4-0.2
			c-0.1-0.1-0.1-0.1,0-0.4c0.1-0.3,0.1-0.5,0-0.7C4.5,8.6,5,8,5.2,8c0.2,0,0.3,0.2,0.2,0C5.4,7.7,5.4,7.5,5.3,7.4L5.3,7.2z"/>
		<path id="Fill-170" class="st10" d="M2.7,3.6C3,3.9,3.6,4.2,4.2,4.2c0.6,0,1.2-0.2,1.1-0.3C5.2,3.8,4.6,3.3,4.5,3.3
			c-0.2-0.1-0.6-0.2-0.9,0S2.7,3.6,2.7,3.6"/>
		<path id="Shape_00000098911666736752540600000009616896914348762015_" class="st11" d="M1.3,3.7L2,3C1.7,3.3,1.3,3.8,1.7,3.9
			l0.2,0c0.1,0-0.8,0.2-0.8,0.2L1,4.1C1,4.3,0.9,4.5,1.2,4.5c0.5,0-0.5,0.1-0.7,0.3c-0.2,0.2-0.2,0.8,0,0.9l0,0.3L0.1,5.8L0,5.4
			L0.1,5l0.4-0.5L1.3,3.7z M4,1.7C3.7,1.8,3.2,2.4,3.2,2.5c0,0.2-0.1,0.5-0.3,0.3C2.8,2.7,2.6,2.5,2.8,2.4c0.1-0.2,0.8-0.8,0.8-0.8
			l0.1,0c0.1,0,0.2,0,0.3,0C4,1.6,4,1.7,4,1.7z"/>
		<path id="Fill-180" class="st12" d="M9,5.3c0.3,0,0.4-0.2,0.4-0.4S9.3,4.4,9.1,4.3c-0.2-0.1-0.5-0.2-0.7,0C8.2,4.5,8.4,4.9,8.5,5
			C8.6,5.2,9,5.3,9,5.3"/>
		<path id="Fill-186" class="st0" d="M7.1,6.4c0,0.1-0.2,0.3-0.4,0.1C6.6,6.3,6.2,5.6,6.4,5.6S6.8,5.8,6.9,6C7,6.2,7.1,6.3,7.1,6.4"
			/>
		<path id="Fill-188" class="st0" d="M8.1,6.5C7.9,6.1,7.5,5.8,7.4,6C7.3,6.2,7.6,6.4,7.8,6.7C8.1,7,8.4,7.3,8.3,7
			C8.3,6.8,8.2,6.6,8.1,6.5"/>
		<path id="Shape_00000000189046001705519850000009389624517026577049_" class="st13" d="M2.3,2.8c0.4-0.3,0.5-0.3,0.6-0.2L3,2.7
			c0.1,0.2,0.1,0.4,0,0.7C2.8,3.6,2.5,3.7,2.2,3.8L2,3.9C1.6,4,1.4,4,1.3,3.8C1.3,3.6,1.9,3.1,2.3,2.8z M3.4,1.9
			C3.6,1.7,3.9,1.6,4,1.7c0.1,0.2-0.1,0.7-0.5,0.8C3.1,2.8,3,2.6,3,2.5C2.9,2.3,3.3,2,3.4,1.9z M7.7,3.8C8,3.7,8.4,4,8.5,4.2
			c-0.2,0.1-0.1,0.4,0,0.6c0.1,0.2,0.2,0.4,0.2,0.4L7.7,5L7.7,4.8C7.6,4.6,7.5,4.4,7.4,4.2C7.4,3.9,7.5,3.8,7.7,3.8z M6.9,0.2
			l0.7,0.2l0.6,0.3l0.5,0.5l0.5,1.1l0.5,0.9L10.1,4L9.7,3.8C9.4,3.6,8.9,3.3,8.7,3.1L7.8,2.3l0,0c0,0-0.1,0.1-0.4,0.2
			c-0.3,0.1-0.6,0-0.6,0l0,0.1c0,0.1,0.1,0.3,0,0.4C6.8,3.2,6.6,3.3,6.3,3.3S5.6,3.2,5.4,2.8C5.2,2.5,5.4,2,5.8,1.7s0.7,0,1.2,0
			C7.5,1.7,7.2,0.4,6.9,0.2z"/>
		<path id="Shape_00000092443839853659750300000009425465996509213072_" class="st7" d="M5.1,0.2C6-0.2,7.2,0,8,0.5
			c0.8,0.4,0.9,1.1,1.3,1.8c0.3,0.5,0.6,1.1,0.9,1.6c0,0,0,0,0,0.1c0.2,0.3,0.4,0.7,0.5,1L11,5.6c0.2,0.5,0.5,1.2,0,1.5l-0.1,0.1
			c-0.3,0.2-0.8,0.3-1.2,0.2c-0.3,0-0.6-0.1-1-0.1c-0.2,0-0.5,0.1-0.7,0.1c-0.2,0-0.3-0.1-0.5-0.3L7.5,7.1c0,0-0.1,0-0.2,0
			C7.1,7,7.1,7.1,7,7.2C6.7,7.3,6.5,6.9,6.1,6.9c0,0.1,0,0.1,0,0.2C6,7.3,5.9,7.3,5.6,7.3l-0.3,0c0,0.2,0.2,0.5,0.2,0.7l0,0l0,0
			c0,0.2,0,0.4,0,0.7C5.5,9.1,5.7,9.5,5.8,9.9c0.1,0.4,0.3,0.7,0.4,1.1c0.1,0.5,0,1,0.1,1.5c0,0.2,0.2,0.6,0.1,0.8
			c-0.1,0.1-0.3,0.3-0.4,0.4l-1.4,1.3c0,0,0,0-0.1,0l-0.1-0.4c-0.2-0.5-0.3-1-0.1-1.6c0.1-0.3,0.3-0.5,0.1-0.8
			c-0.1-0.2-0.2-0.3-0.3-0.4c-0.1-0.1-0.1-0.1-0.1-0.2C4,11.5,4,11.3,4,11.2L3.9,11c0,0,0,0,0-0.1c0-0.1-0.1-0.1-0.1-0.2
			c0-0.2,0-0.3-0.1-0.5l0-0.2c0-0.3,0-0.5-0.1-0.8c-0.1-0.3-0.1-0.5,0-0.8c0-0.2,0-0.4,0-0.6c0-0.1,0-0.1,0.1-0.1L3.7,7.5
			c0,0,0,0,0-0.1c0-0.1,0-0.2,0-0.2c-0.1,0-0.3,0.1-0.3,0.1C3.1,7.3,3,7.2,2.9,7.1C2.9,7,2.9,6.9,2.9,6.7c-0.2,0-0.3,0-0.5,0
			c-0.3,0-0.7-0.1-1-0.2C1.2,6.5,1,6.5,0.8,6.4C0.6,6.3,0.4,6.1,0.2,5.9c-0.5-0.6,0.1-1.2,0.5-1.7l0.1-0.1l0.1-0.2
			c0.7-0.7,1.5-1.4,2.2-2.1l0.3-0.4C4,0.9,4.5,0.4,5.1,0.2z M5.3,7.3c-0.3,0-0.7,0-1,0.1l-0.2,0c-0.1,0-0.2,0-0.2,0
			c0,0-0.1-0.1-0.1-0.1c0,0.1,0.1,0.1,0.1,0.2c0.1,0.1,0.2,0.1,0.3,0.2c0.1,0,0.1,0.2,0,0.2C4,7.9,3.9,7.9,3.8,7.8
			c-0.1,0.1,0,0.4,0,0.5c0,0.3,0,0.5,0,0.7l0,0.2c0,0.2,0.1,0.4,0.1,0.7c0.2,0,0.4,0,0.6,0c0.1,0,0.1,0.2,0,0.2c-0.2,0-0.4,0-0.6,0
			c0,0.2,0,0.5,0.1,0.7c0.2,0.1,0.5,0,0.7,0c0.1,0,0.1,0.2,0,0.2C4.5,11,4.3,11.1,4.1,11c0,0.1,0.1,0.2,0.1,0.4
			c0.1,0.3,0.3,0.4,0.4,0.6c0.2,0.3,0.2,0.7,0.1,1l-0.1,0.3c-0.1,0.2-0.1,0.5-0.1,0.7l0.1,0.5c0,0.1,0.1,0.3,0.1,0.3
			c0,0,0,0,0.1-0.1c0.1-0.1,0.2-0.2,0.3-0.3l1.3-1.2c-0.1-0.4-0.2-0.9-0.2-1.3l0-0.3c-0.1,0-0.2,0-0.3,0c-0.1,0-0.1-0.2,0-0.2
			c0.1,0,0.2,0,0.3,0c0-0.2-0.1-0.4-0.1-0.6c-0.1-0.2-0.2-0.3-0.3-0.5c-0.1-0.1,0-0.3-0.1-0.4c0-0.2-0.1-0.4-0.1-0.5L5.5,9.3
			c0-0.1-0.1-0.1-0.1-0.2c0-0.1,0-0.2,0-0.2c0-0.2,0-0.4,0-0.6C5.4,8.1,5.3,8.1,5.2,8.1c-0.1,0-0.1-0.2,0-0.2c0.1,0,0.2,0,0.3,0
			l0-0.1l0-0.1C5.3,7.5,5.3,7.4,5.3,7.3z M4.6,5L4.2,5C4,5.2,3.9,5.3,3.8,5.5l0,0.1c0,0.1,0,0.2,0,0.3l0,0.1c0,0.1-0.1,0.2-0.1,0.1
			c0-0.1,0-0.2,0-0.2C3.4,6.1,3.3,6.2,3.2,6.4C3,6.7,3.2,7.2,3.6,7c0,0,0,0,0,0l0,0c0.1,0.3,0.7,0,1,0c0.2,0,0.4,0,0.6,0.1
			c0,0,0,0,0.1,0c0.2,0,0.4,0,0.5,0C6.3,6.9,5.7,6,5.7,5.7c0-0.2-0.1-0.4-0.1-0.6C5.3,5.1,5,5.1,4.6,5z M6.7,5.3
			c0.2,0.5,0.4,1,0.7,1.5c0,0,0,0,0,0c0.1,0,0.2,0.1,0.3,0.3c0.2,0.1,0.4,0.1,0.6,0.1C8.2,6.5,7.7,5.9,7.2,5.4
			C7,5.4,6.9,5.3,6.7,5.3z M7.5,5.5C7.9,6,8.3,6.6,8.4,7.2l0.4,0c0.1,0,0.2,0,0.3,0c0.2,0,0.4,0,0.6,0c-0.8-0.4-1.4-1-2-1.6L7.5,5.5
			z M8.2,5.7c0.6,0.6,1.3,1.1,2.1,1.4c0.1,0,0.1,0,0.2,0c0.1,0,0.3-0.1,0.4-0.1c0.1-0.4-2-1-2.2-1.1L8.2,5.7z M6.2,4.7
			C5,4.5,3.7,4.5,2.5,4.5c-0.8,0-1.6,0.1-2.3,0.6C0.1,5.3,0.1,5.4,0.1,5.5c0,0.1,0.2,0.3,0.3,0.4c0-0.8,2.2-1,3.7-1.1l0,0
			c0,0,0,0,0,0l0.5,0c0.3,0,0.6,0,0.7,0c0.4,0,0.8,0.1,1.2,0.2c0,0,0,0,0,0c0.2,0,0.4,0.1,0.6,0.1c0,0,0,0,0,0l0,0
			c0.2,0.1,0.4,0.1,0.6,0.2c0,0,0,0,0,0c0.5,0.2,1,0.4,1.5,0.5c0.5,0.2,1.7,0.4,1.7,1c0.1,0,0.1-0.1,0.1-0.1c0.1-0.2,0.1-0.3,0-0.5
			C10.8,6,10.4,6,10.1,5.9C9.7,5.7,9.3,5.6,8.9,5.4C8,5.1,7.1,4.9,6.2,4.7z M6.1,5.2c0.1,0.6,0.3,1.1,0.5,1.7c0.1,0.1,0.3,0.1,0.5,0
			c0.1,0,0.1-0.1,0.2-0.1C7,6.3,6.7,5.8,6.6,5.2C6.4,5.2,6.2,5.2,6.1,5.2z M5.7,5.1c0,0.4,0.2,0.8,0.3,1.2c0,0.1,0.1,0.2,0.1,0.4
			c0.1,0,0.2,0,0.3,0.1C6.2,6.2,6,5.7,6,5.1L5.7,5.1z M3.5,5.8C2.9,5.9,2.4,6.2,1.8,6.5l0.3,0.1c0.3,0,0.5,0,0.8,0
			C3.1,6.2,3.3,5.9,3.5,5.8z M3.7,5.4C2.8,5.7,1.9,5.8,1.1,6.2c0.1,0.1,0.3,0.1,0.5,0.1C2.2,6,2.9,5.7,3.7,5.4L3.7,5.4z M3.9,5.1
			c-0.2,0-0.5,0-0.7,0l-0.4,0C2.6,5.2,0.3,5.5,0.6,6l0.1,0c0.1,0,0.1,0.1,0.2,0.1c0.9-0.6,2-0.7,3-1C3.8,5.1,3.9,5.1,3.9,5.1z
			 M7.6,0.5c-0.8-0.3-1.9-0.4-2.7,0C4.5,0.8,4.1,1.1,3.7,1.4C3.9,1.5,4,1.5,4,1.6c0,0.1,0,0.3-0.1,0.2C3.9,1.7,3.7,1.6,3.5,1.7
			L3.2,2C3.1,2.1,3,2.3,2.8,2.4l0,0.1c0,0.1,0,0.1,0,0.2c0,0.1,0.1,0.1,0.2,0.2c0.1,0,0,0.3,0,0.2C2.8,3,2.7,2.8,2.7,2.6L1.4,3.7
			L1.2,3.9c0.3,0,0.6-0.1,0.9-0.2c0.5-0.2,1-0.6,1.6-0.7c0.9-0.2,1.3,0.5,2,1c0.1,0,0,0.3,0,0.2C4.9,3.8,4.4,3,3.4,3.4
			C3.3,3.4,3.2,3.5,3,3.5L2.6,3.7C2.1,4,1.6,4.2,1,4.1C0.8,4.3,0.6,4.5,0.4,4.8c0.6-0.3,1.3-0.4,2-0.4c1.3-0.1,2.6,0,3.8,0.2
			c0.5,0.1,0.9,0.2,1.4,0.3C7.4,4.5,7.3,4.1,7.4,3.9c0.1-0.4,0.8-0.1,1,0c0.1,0.1,0,0.3,0,0.2C8.3,4,8.1,4,8,3.9
			c-0.1,0-0.4-0.1-0.5,0C7.4,4,7.5,4.3,7.6,4.4l0,0.1c0,0.1,0.1,0.3,0.2,0.4C8,4.9,8.2,4.9,8.4,5C8.4,4.9,8.3,4.7,8.3,4.6
			c0-0.2,0-0.5,0.2-0.5C9,3.9,9.7,4.7,9.4,5.1C9.4,5.2,9.3,5.1,9.3,5l0,0c0.1-0.1-0.1-0.3-0.1-0.4C9.1,4.4,8.8,4.3,8.6,4.3
			C8.2,4.3,8.5,5,8.7,5.1l0.1,0l0.9,0.4c0.2,0.1,0.3,0.1,0.5,0.2l0.4,0.1c0.1,0,0.3,0.1,0.4,0.2l0-0.1c-0.1-0.3-0.3-0.6-0.5-0.9
			l-0.2-0.5c-0.1-0.1-0.1-0.2-0.2-0.3C9.4,3.8,8.9,3.4,8.3,2.9C7.9,2.5,7.5,2.1,7,1.9C6.5,1.6,5.6,1.7,5.4,2.3
			C5.3,2.8,5.7,3.1,6.1,3.2c0.2,0,1.2-0.1,0.6-0.6c0,0,0-0.3,0.1-0.2c0.5,0.5-0.1,1.2-0.7,1C5.4,3.3,5.1,2.6,5.4,2
			c0.4-0.7,1.4-0.5,1.9-0.1c0.9,0.6,1.6,1.5,2.6,2L9.5,2.9C9.3,2.6,9.1,2.3,9,2C8.7,1.3,8.4,0.8,7.6,0.5z M5.3,0.9
			c0.2,0,0.3,0.2,0.3,0.4c0,0.1-0.1,0.1-0.1,0c0-0.1-0.2-0.2-0.3-0.1c-0.2,0-0.3,0.1-0.3,0.3c0,0.1,0,0.2,0.1,0.2c0.1,0,0.1,0,0.2,0
			c0.1,0,0.1,0.2,0,0.2c-0.1,0-0.2,0-0.3-0.1C4.7,1.7,4.7,1.4,4.8,1.2C4.9,1.1,5.1,0.9,5.3,0.9z M6.6,0.5C6.8,0.6,7,0.8,7,1
			C7,1.2,7,1.4,6.8,1.5c-0.1,0-0.1-0.2,0-0.2c0.3-0.2,0.1-0.5-0.2-0.6C6.5,0.6,6.5,0.4,6.6,0.5z"/>
	</g>
	
		<linearGradient id="Shape_00000141443345824025047350000018091840813561515193_" gradientUnits="userSpaceOnUse" x1="-613.1528" y1="417.2928" x2="-613.1528" y2="416.2928" gradientTransform="matrix(74.5164 0 0 -44.5035 45765.7383 18606.2812)">
		<stop  offset="0" style="stop-color:#FA93D0"/>
		<stop  offset="1" style="stop-color:#F25AA3"/>
	</linearGradient>
	
		<path id="Shape_00000168804901987286436050000008036912588221525654_" style="fill-rule:evenodd;clip-rule:evenodd;fill:url(#Shape_00000141443345824025047350000018091840813561515193_);" d="
		M59.9,38.6c0.1,0,0.2,0,0.3,0l0.7,0.1c0.3,0.1,0.6,0.1,0.7,0.3c0.1,0.1,0.1,0.2,0,0.3l-0.2,0.5c-0.1,0.4-0.3,1.1-0.5,2.4
		c0.8-0.9,2-1.4,3.1-1.4c1.9,0,3.3,1.5,3.6,3.9c0.4,2.9-2,11.5-4.6,13.8c-0.8,0.7-1.8,1.1-2.8,1.1c-0.4,0-0.7-0.1-0.9-0.1l-0.2,0
		c-0.1,0.2-0.1,0.8-0.2,1.9l-0.3,2.5l-0.3,3c-0.1,1.3-0.2,2.5-0.3,3.4l-0.2,2.5l-0.1,0.7c-0.1,0.8-0.2,1-0.4,1.1l-0.1,0
		c-0.3,0-0.4-0.2-0.4-0.5l0-0.2c-0.2,0.4-0.6,1.3-0.9,2.8c-0.2,0.8-0.1,1.5-0.1,1.9l0,0.4c0,0.2,0,0.4-0.1,0.5
		c-0.1,0.1-0.1,0.1-0.2,0.1l-0.1,0l0,0c-0.7,0-1.2-1-1.9-3.6c-0.5-2-0.2-5.2,0.5-10.4l0.7-5.4c0.2-1.2,0.3-2.2,0.4-3.3l0.6-5.2
		c0.3-2.3,0.6-4.1,0.9-5.6l0.1-0.3c0.3-1.2,0.4-2.2,0.5-3.1l0.1-0.8c0.1-1,0.2-1.8,0.7-2.2c0.1-0.1,0.3-0.3,0.4-0.4l0.3-0.4
		C59.1,38.9,59.4,38.6,59.9,38.6z M50.6,41.6c1.3,0,2,0.5,2.8,1.3l0.3,0.3c1.3,1.1,1.9,2.2,2,4.5c0.1,1.8-0.5,2.6-0.7,2.9
		c-0.2,0.2-0.4,0.3-0.7,0.3c-0.1,0-0.3,0-0.4-0.1c-0.2-0.2-0.3-0.5-0.3-1l0-0.8c0-0.6-0.1-1.3-0.4-1.6L52.9,47
		c-0.4-0.3-0.8-0.5-1.5-0.5c-0.8,0-2,0.3-3.6,1l-0.6,0.2c-1.9,0.8-2.8,1.5-3,2.1c-0.1,0.3,0,0.6,0.2,1c0.2,0.4,1,0.7,1.9,1.1
		l1.2,0.5c2.1,0.8,4.5,2,5.6,4.3c1.9,4,0.4,8.2-3.8,10.8c-1.2,0.7-2.9,1.1-4.6,1.1c-3.1,0-4.7-1.4-5.3-2.2c-1-1.3-1.3-2.9-0.7-4.4
		c0.6-1.6,2.1-2.8,3.7-3.1c0.4-0.1,0.8-0.1,1.1-0.1c1.4,0,1.6,0.5,1.6,0.8c0.1,0.4-0.3,0.9-1,1.2l-0.2,0.1c-1.1,0.4-1.9,1.5-2.1,2.3
		c0,0.2,0,0.5,0.2,0.7c0.5,0.5,1.1,0.7,1.8,0.7c0.9,0,2-0.4,3.4-1.2c2.8-1.7,2.7-4,2.2-5.7c-0.4-1-1.8-1.8-3.5-2.6l-1.7-0.8
		c-1.1-0.5-2.1-1-2.8-1.6c-1.4-1.1-2.1-3.6-1.7-5.6c0.3-1.5,1.2-2.5,2.5-2.9c1.3-0.4,2.1-0.8,2.8-1.1l0.7-0.4l0.3-0.2
		c0.8-0.4,1.7-0.8,3.4-1C49.9,41.7,50.3,41.6,50.6,41.6z M63.6,44.5c-0.6,0-1.3,0.6-2.1,1.7c-1.2,1.8-2,9.5-2.2,10.9l0.2,0
		c0.7,0,2.1-0.2,3.1-1.9C64.1,53,65,45.9,64.4,45C64.2,44.7,63.9,44.5,63.6,44.5z M99.7,39.9c-0.5,0-1,0.4-1.6,1.1
		c-1,1.2-1.5,2.5-1.7,3.2l0.2-0.1c0.9-0.4,2.6-1.3,3.4-3c0.2-0.3,0.2-0.7,0-0.9C100.1,40,100,39.9,99.7,39.9L99.7,39.9z M73.9,43
		l0,0.4c-0.1,0.6-0.2,1.5-0.4,2.2c-0.7,2.1-1.1,3.9-0.9,5.6c0.2,1.1,0.8,1.8,1.5,1.8c0.5,0,0.9-0.3,1.3-0.9c0.5-0.8,1-2.3,1.1-4
		c0.1-1.5,0-2.9-0.3-3.4c-0.3-0.5-0.7-0.8-1.2-1l-0.4-0.2C74.4,43.3,74.1,43.2,73.9,43z M102.8,61.7c-0.1,0-0.2,0-0.3,0
		c-0.7-0.2-2.2-1.2-2.7-3.9c-0.5-2.6,3-5.9,4-6.6c0.2-0.2,0.5-0.3,0.8-0.3c0.4,0,0.8,0.2,1,0.5c0.1,0.2,0.2,0.5-0.2,1l-0.2,0.3
		l-0.6,0.7c-0.8,0.9-1.8,2.3-1.4,2.8c0.1,0.1,0.1,0.1,0.2,0.1c0.7,0,2.1-1.7,2.8-2.9l0.1-0.2c0.3-0.5,0.7-1.6,0.4-2.4
		c-0.2-0.5-0.7-0.7-1.3-0.9l-0.4-0.1c-0.4-0.1-0.6-0.1-0.8-0.1c-0.4,0-0.6,0.1-1,0.3l-0.7,0.4c-0.2,0.1-0.5,0.3-0.9,0.5l-0.5,0.2
		C99.5,52,97.5,53,95.5,53c-0.7,0-1.4-0.1-2-0.4c-1.3-0.5-2-1.8-2.1-3.7c-0.1-1.5,0.1-3.4,0.7-5.6c-0.7-1.4-1.5-2.1-2.2-2.1
		c-0.6,0-1.6,0.6-2.5,3.4c-1.3,4-2.1,8.2-2.5,10.3l-0.2,0.9c-0.3,1.5-1.5,2.8-2.6,2.8c-0.2,0-0.3,0-0.5-0.1
		c-1.3-0.5-1.6-1.7-1.6-3.8l0-0.4l0-1.3c0-1.7,0.1-3.7,0.7-8c-0.7,1-1.3,1.3-1.6,1.4l0,0.2c0.1,0.7,0.2,2.5-0.7,5.2
		c-1.2,3.5-4.1,4.7-5.8,4.7c-0.1,0-0.3,0-0.4,0c-1.8-0.2-4.4-2.3-4.4-7.1c0.1-4.6,2.4-9.5,4.2-9.8l0.3-0.1c0.4-0.1,0.6-0.2,0.7-0.2
		l0.1,0c0.1-0.1,0.3-0.2,0.6-0.2l0.2,0c0.1,0,0.1,0,0.2,0c0.7,0,1.3,0.2,2.5,1.3c1.1,1,1.7,2.7,1.8,3.3l0.1,0
		c0.3-0.1,0.9-0.5,1.7-1.5c0.8-1,1.3-2.5,1.7-3.7l0.3-0.8c0.2-0.5,0.3-1,0.5-1.3c0.2-0.3,0.6-0.5,1-0.5c0.6,0,1.2,0.3,1.6,0.7
		c0.2,0.3,0.5,0.8,0.4,1.5l-0.1,0.5c-0.2,1.1-0.4,3-0.6,4.6c0.2-0.7,0.5-1.5,0.9-2.4c0.9-2.3,2.6-3.9,4-3.9c0.4,0,0.7,0.1,1,0.3
		l0.3,0.2c0.4,0.3,0.6,0.4,0.8,0.5l0.2,0.1c0.2,0.1,0.3,0.2,0.5,0.4c0.6,0.7,0.9,1.8,0.9,2.6l0.2-0.4c0.5-1.1,1.4-2.5,3-3.7
		c0.7-0.6,1.6-0.9,2.5-0.9c1.2,0,2.4,0.5,3.2,1.4c0.6,0.7,0.9,1.4,0.9,2.2c-0.1,2.3-3.8,6.2-6.8,7.8c0,0.4,0.1,0.8,0.4,1
		c0.3,0.3,0.9,0.5,1.7,0.5c0.5,0,1-0.1,1.6-0.2c3.3-0.7,4.4-1.6,4.8-2.2c0.1-0.3-0.1-0.8-0.5-1.4l-0.6-0.9c-0.4-0.7-0.8-1.5-0.9-2.2
		c-0.3-2.1,4.8-5.1,6.6-6c0.6-0.3,1.2-0.4,1.7-0.4c0.7,0,1.2,0.3,1.6,0.8c0.4,0.5,0.7,1.6-0.1,3.6c-0.9,2.3-1.8,3.5-2.7,3.5
		c-0.3,0-0.5-0.1-0.7-0.3c-0.3-0.2-0.4-0.8-0.4-1.5l0-1c0-0.4,0-0.9-0.1-1l0,0c0,0,0,0,0,0c-0.7,0-2.5,1.1-2.6,2.3
		c-0.1,0.8,1.2,2.3,2.4,3.5l1.2,1.2c0.4,0.4,0.7,0.8,0.9,1l0.1,0.2c0.3,0.5,0.6,1.4,0.5,3c-0.2,1.7-0.9,3.6-2.2,5.7
		c-1.2,1.9-2.4,3.4-3.6,4.4c-1.1,0.9-1.9,1.1-2.3,1.1L102.8,61.7z"/>
	<path id="Shape_00000040559615911077993480000001212946036790088631_" class="st7" d="M111.1,35.1c0.7,0,1.4,0.3,1.7,0.8
		c0.4,0.6,0.7,1.7-0.1,3.8c-0.9,2.4-1.9,3.6-2.9,3.6c-0.3,0-0.6-0.1-0.8-0.3c-0.4-0.3-0.5-1-0.5-2.1l0-0.5c0-0.3,0-0.7-0.1-0.9
		c-0.6,0.1-2.3,1-2.4,2.1c-0.1,0.7,1.4,2.4,2.5,3.5l1,1c0.4,0.4,0.7,0.8,0.9,1.1c0.3,0.5,0.8,1.5,0.6,3.3c-0.2,1.7-0.9,3.7-2.2,5.8
		c-1.2,1.9-2.4,3.4-3.6,4.4c-0.9,0.7-1.9,1.2-2.5,1.2c-0.1,0-0.2,0-0.3,0c-0.5-0.1-1.1-0.6-1.6-1.2c-0.6-0.8-1-1.7-1.3-2.9
		c-0.6-2.9,3.3-6.3,4.1-6.8c0.3-0.2,0.6-0.3,0.9-0.3c0.5,0,1,0.3,1.2,0.7c0.2,0.4,0.1,0.8-0.2,1.2l-0.2,0.3l-0.3,0.3
		c-0.4,0.5-1,1.2-1.4,1.8c-0.3,0.5-0.4,0.9-0.3,1.1c0,0,0.1,0,0.1,0c0.6,0,1.9-1.5,2.6-2.8c0.4-0.7,0.7-1.7,0.4-2.4
		c-0.2-0.4-0.6-0.6-1.2-0.8l-0.4-0.1c-0.3-0.1-0.6-0.1-0.8-0.1c-0.4,0-0.6,0.1-0.9,0.3l-0.7,0.4c-0.2,0.1-0.5,0.3-0.9,0.5l-1.1,0.5
		c-1.5,0.7-3.3,1.5-5.1,1.5c-0.7,0-1.4-0.1-2.1-0.4c-1.3-0.5-2.1-1.9-2.2-3.9c-0.1-1.5,0.1-3.4,0.7-5.6c-0.6-1.2-1.4-2-2-2
		c-0.5,0-1.4,0.4-2.3,3.2c-1.2,3.4-1.9,7.1-2.4,9.4l-0.3,1.8c-0.2,1.4-1.5,3-2.8,3c-0.2,0-0.4,0-0.6-0.1c-1.4-0.6-1.7-1.8-1.7-4
		l0-0.4l0-1.1c0-0.1,0-0.2,0-0.3l0-0.7c0-1.4,0.2-3.3,0.6-6.5c-0.4,0.5-0.8,0.7-1.1,0.8l0,0.2c0.1,0.9,0.1,2.6-0.7,5
		c-0.7,1.9-1.8,3.1-2.7,3.7c-1,0.7-2.2,1.2-3.3,1.2c-0.1,0-0.3,0-0.4,0c-1.9-0.2-4.6-2.4-4.6-7.4c0-0.4,0-0.9,0.1-1.3
		c-0.2,1.3-0.6,2.7-1,4.2c-1.3,4.1-2.6,5.9-3.2,6.5l-0.1,0.1c0,0-0.1,0.1-0.1,0.1c-0.9,0.8-1.8,1.2-2.9,1.2c-0.4,0-0.7-0.1-0.9-0.1
		l0,0.2c0,0.2,0,0.4-0.1,0.6l-0.5,4.4L58.8,66c-0.2,1.4-0.3,2.7-0.4,3.7l-0.3,3.5c0,0.3,0,0.5-0.1,0.7l0,0.2
		c-0.1,0.3-0.2,0.7-0.6,0.8l-0.1,0c-0.3,0-0.4-0.1-0.5-0.3l-0.1,0.3c-0.2,0.5-0.4,1.1-0.6,2c-0.2,0.7-0.1,1.3-0.1,1.7l0,0.3
		c0,0.4,0.1,0.7-0.1,0.9c-0.1,0.1-0.2,0.2-0.5,0.2l0,0c-0.8,0-1.4-1-2.1-3.8c-0.5-2.1-0.2-5.4,0.5-10.8l0.7-5
		c0.2-1.4,0.4-2.7,0.5-3.9l0.5-4.1c0.3-2.5,0.6-4.5,0.9-6l0.1-0.3c0.3-1.1,0.4-2.2,0.5-3.1l0.1-0.8c0.1-1.1,0.2-1.8,0.7-2.3
		c0.1-0.1,0.2-0.3,0.4-0.4l0.3-0.4c0.3-0.4,0.7-0.7,1.3-0.7l0.1,0l0.1,0l0.9,0.2c0.4,0.1,0.6,0.2,0.8,0.4c0.1,0.2,0.1,0.4,0,0.6
		L61.6,40c-0.1,0.3-0.2,0.9-0.4,1.7c0.8-0.7,1.8-1.1,2.8-1.1c2,0,3.5,1.5,3.8,4.1c0.1,0.4,0.1,1,0,1.7l0,0.3l0.1-0.5
		c0.3-1.3,0.7-2.6,1.2-3.8c0.9-2,1.9-3.2,2.8-3.4l0.3-0.1c0.4-0.1,0.5-0.2,0.6-0.2l0.1,0c0.2-0.2,0.4-0.2,0.9-0.3l0.2,0
		c0.8,0,1.4,0.2,2.7,1.4c1,1,1.6,2.5,1.8,3.2l0.1-0.1c0.3-0.2,0.8-0.6,1.4-1.4c0.8-1,1.3-2.4,1.7-3.6l0.3-0.8c0.2-0.5,0.3-1,0.5-1.3
		c0.2-0.4,0.7-0.6,1.2-0.6c0.6,0,1.3,0.3,1.7,0.8c0.4,0.5,0.5,1,0.4,1.6l-0.1,0.7c-0.1,0.3-0.1,0.7-0.2,1.2l-0.2,1.4l0.1-0.3
		l0.1-0.3c1-2.4,2.7-4,4.2-4c0.4,0,0.8,0.1,1.1,0.4c0.4,0.3,0.6,0.5,0.8,0.6l0.4,0.2c0.2,0.1,0.3,0.2,0.6,0.5
		c0.5,0.6,0.8,1.3,0.9,2.1c0.5-1.1,1.5-2.4,2.9-3.5c0.8-0.6,1.7-0.9,2.6-0.9c1.2,0,2.5,0.5,3.4,1.4c0.7,0.7,1,1.5,1,2.3
		c0,0.2,0,0.4-0.1,0.5c0.4-0.5,1-1,1.7-1.6c1.5-1.1,3.2-2.1,4.3-2.7C110,35.2,110.6,35.1,111.1,35.1z M59.9,38.8
		c-0.8,0-1,0.8-1.7,1.4c-0.7,0.7-0.5,2.7-1.1,5.6l-0.2,0.8c-0.6,2.8-1,7.2-1.9,13.5l-0.7,5.4c-0.7,5.4-1,8.6-0.5,10.6l0.1,0.5
		c0.6,2.1,1,2.9,1.6,3l0,0c0.5,0-0.2-1,0.3-2.8c0.4-1.8,0.9-3.1,1.2-3.1l0,0c0.2,0.1,0.1,0.8,0.4,0.8l0,0c0.4,0,0.3-2.3,0.9-8.1
		l0.4-3.5c0.3-3.1,0.4-3.6,0.6-3.6l0,0l0.2,0.1c0.2,0,0.5,0.1,0.9,0.1c0.7,0,1.6-0.2,2.6-1.1c2.5-2.2,4.9-10.7,4.5-13.6
		c-0.4-2.7-1.9-3.8-3.4-3.8c-1.4,0-2.8,0.8-3.5,2l0.1-0.5c0.4-2.9,0.8-3.1,0.7-3.3c-0.1-0.2-0.7-0.2-1.3-0.3
		C60.1,38.8,60,38.8,59.9,38.8z M50.6,41.4c1.4,0,2.1,0.6,2.9,1.3l0.3,0.3c1.3,1.2,2,2.3,2.1,4.7c0.1,1.3-0.2,2.4-0.8,3
		c-0.2,0.3-0.5,0.4-0.8,0.4c-0.2,0-0.3-0.1-0.5-0.2c-0.3-0.2-0.4-0.7-0.4-1.3l0-0.7c0-0.6,0-1.3-0.3-1.5l-0.4-0.3
		c-0.3-0.3-0.7-0.5-1.4-0.5c-0.8,0-1.8,0.3-3.2,0.8l-0.3,0.1c-2.1,0.9-3.3,1.6-3.5,2.2c-0.1,0.2,0,0.4,0.2,0.8
		c0.2,0.3,1.1,0.7,2.1,1.1l0.9,0.4c2.1,0.9,4.6,2.1,5.7,4.4c1,2,1.1,4.1,0.4,6.1c-0.7,1.9-2.2,3.7-4.3,4.9c-1.2,0.7-3,1.2-4.7,1.2
		c-2.4,0-4.3-0.8-5.5-2.3c-1.1-1.4-1.3-3-0.7-4.6c0.6-1.7,2.2-2.9,3.8-3.2c0.4-0.1,0.8-0.1,1.1-0.1c1.5,0,1.8,0.7,1.8,0.9
		c0.1,0.4-0.2,1-1.1,1.4l-0.2,0.1c-1,0.4-1.8,1.4-1.9,2.2c0,0.1-0.1,0.4,0.1,0.5c0.5,0.4,1,0.6,1.7,0.6c0.9,0,2-0.4,3.3-1.1
		c2.7-1.6,2.6-3.8,2.1-5.4c-0.4-1-1.9-1.8-3.6-2.6l-1.4-0.7c-1.1-0.5-2.2-1-2.9-1.6c-1.4-1.2-2.2-3.7-1.8-5.8c0.3-1.5,1.2-2.6,2.6-3
		c1.1-0.4,1.9-0.7,2.5-1l1-0.5c0.9-0.5,1.8-0.9,3.6-1.1C49.9,41.5,50.3,41.4,50.6,41.4z M50.6,41.8c-0.3,0-0.6,0-1,0.1
		c-3.6,0.6-3.7,1.7-7.1,2.7c-3.5,1.1-2.8,6.3-0.7,8.1c2.1,1.7,7.2,2.8,8,5.1c0.8,2.2,0.3,4.4-2.2,5.9c-1.4,0.8-2.5,1.2-3.5,1.2
		c-0.8,0-1.4-0.3-2-0.7c-0.7-0.6,0.3-2.7,1.8-3.3l0.2-0.1c1.4-0.5,1.4-1.6-0.4-1.6c-0.3,0-0.6,0-1,0.1c-2.8,0.5-5.2,4.1-2.9,7.1
		c1.2,1.5,3.2,2.1,5.2,2.1c1.7,0,3.3-0.4,4.5-1.1c4.1-2.5,5.6-6.6,3.8-10.5c-1.9-3.9-7.9-4.6-8.7-5.9l-0.1-0.1
		c-0.5-0.9-0.4-1.8,3.5-3.5c1.7-0.7,2.9-1,3.6-1c0.8,0,1.2,0.3,1.6,0.6l0.4,0.3c0.9,0.7,0.2,3.1,0.7,3.4c0.1,0,0.2,0.1,0.2,0.1
		c0.5,0,1.3-1,1.2-3c-0.1-2.2-0.7-3.2-1.8-4.2l-0.6-0.6C52.4,42.3,51.8,41.8,50.6,41.8z M111.1,35.5c-0.5,0-1,0.1-1.6,0.4l-0.4,0.2
		c-2.4,1.2-6.4,3.9-6.1,5.6c0.2,1.8,2.4,3.8,2,4.7c-0.5,0.8-2,1.6-4.9,2.3c-0.6,0.1-1.2,0.2-1.6,0.2c-1.7,0-2.3-0.8-2.2-1.9
		c3-1.6,6.7-5.5,6.8-7.7c0.1-1.6-1.8-3.3-3.9-3.3c-0.8,0-1.6,0.2-2.4,0.8c-2.7,2.1-3.5,5-3.5,5l0-0.1c0-0.5,0-2.4-0.9-3.4
		c-0.5-0.6-0.6-0.3-1.7-1.2c-0.2-0.2-0.5-0.3-0.8-0.3c-1.2,0-2.8,1.4-3.8,3.7L85.8,41c-0.7,1.8-1.1,3.1-1.3,3.9l-0.1,0.6l0.5-3.9
		l0.2-1.5c0.1-1,0.3-1.9,0.4-2.4c0.2-1.2-0.9-2-1.7-2c-0.4,0-0.7,0.1-0.9,0.4c-0.6,1-1.1,4.1-2.5,5.8c-1.3,1.6-2.1,1.7-2.1,1.7
		l-0.1-0.3c-0.2-0.6-0.7-2.2-1.7-3.1c-1.1-1-1.7-1.2-2.3-1.3l-0.3,0c-1,0-0.3,0.3-1.8,0.5c-1.5,0.3-3.9,4.9-4,9.6
		c-0.1,4.7,2.5,6.7,4.2,6.9c0.1,0,0.2,0,0.4,0c1.8,0,4.5-1.4,5.6-4.6c1-2.8,0.7-4.7,0.6-5.2l0-0.2l0.1,0c0.3,0,1.3-0.3,2.2-2.4
		l-0.2,1.2c-0.5,3.6-0.7,5.6-0.7,7.1l0,0.8l0,1.8c0,2.3,0.3,3.2,1.5,3.6c0.1,0.1,0.3,0.1,0.4,0.1c1,0,2.2-1.3,2.4-2.7l0.2-1.4
		c0.4-2.2,1.2-6.2,2.5-9.9c0.8-2.5,1.8-3.5,2.7-3.5c0.9,0,1.8,1,2.4,2.3c-1,3.8-1.3,8.2,1.3,9.2c0.6,0.3,1.3,0.4,1.9,0.4
		c2,0,4.1-1,5.8-1.9c1.8-0.9,2-1.3,2.9-1.3c0.3,0,0.7,0.1,1.2,0.2c2.2,0.4,1.8,2.3,1.1,3.6l-0.1,0.1c-0.6,1.1-2.1,3-3,3
		c-0.2,0-0.3-0.1-0.4-0.2c-0.8-0.9,1.4-3.1,2.1-3.9c0.5-0.7,0-1.2-0.6-1.2c-0.2,0-0.5,0.1-0.7,0.2c-0.9,0.6-4.4,3.8-3.9,6.4
		c0.5,2.5,1.8,3.6,2.6,3.8c0.1,0,0.1,0,0.2,0l0.1,0c1-0.1,3.2-1.3,5.7-5.4c2.9-4.7,2.4-7.5,1.6-8.7c-0.8-1.1-4.7-4.4-4.5-5.9
		c0.2-1.4,2.1-2.5,2.8-2.5c0.1,0,0.1,0,0.2,0c0.5,0.3,0,3.1,0.6,3.6c0.2,0.1,0.3,0.2,0.6,0.2c0.6,0,1.5-0.7,2.5-3.4
		C113.4,36.8,112.6,35.5,111.1,35.5z M81.3,49.9c0.1,0,0.1,0.1,0.1,0.1c-0.2,2.1-0.2,5.5,0.1,6.5c0.1,0.4,0.3,0.6,0.6,0.6
		c0.3,0.1,0.5-0.1,0.6-0.2c0,0,0.1-0.1,0.1,0c0,0,0.1,0.1,0,0.1c-0.1,0.2-0.4,0.3-0.7,0.3c-0.1,0-0.1,0-0.2,0
		c-0.2,0-0.6-0.2-0.7-0.8c-0.3-1.1-0.3-4.4-0.1-6.6C81.2,49.9,81.2,49.9,81.3,49.9z M63.6,44.3c0.4,0,0.7,0.2,1,0.6
		c0.6,1-0.3,8.1-1.8,10.5c-1.1,1.7-2.6,2-3.3,2l-0.2,0c-0.1,0-0.2,0-0.2,0l0.1-1c0.3-2.4,1-8.5,2.1-10.2
		C62.2,44.9,63,44.3,63.6,44.3z M63.6,44.7L63.6,44.7c-0.4,0-1,0.3-1.9,1.7c-1,1.5-1.8,7.8-2.1,10.6l0.2,0c0.7-0.1,1.8-0.4,2.7-1.8
		c0.6-1,1.3-3.1,1.6-5.6c0.4-2.6,0.3-4.2,0.1-4.4C64,44.9,63.9,44.7,63.6,44.7z M83.7,55.2c0.1,0,0.1,0.1,0.1,0.1l0,0.1
		c0,0.2-0.1,0.4-0.3,0.7c0,0-0.1,0-0.1,0c0,0,0,0-0.1,0c0,0-0.1-0.1,0-0.1c0.3-0.4,0.3-0.8,0.3-0.8C83.6,55.3,83.7,55.2,83.7,55.2z
		 M73.7,42.5c0.7,0.8,2,1,2.7,2.1c0.7,1.1,0.4,5.7-0.8,7.6c-0.5,0.7-1,1-1.5,1c-0.8,0-1.5-0.8-1.7-2c-0.3-1.8,0.2-3.6,0.9-5.7
		C73.6,44.4,73.7,42.5,73.7,42.5z M74.1,43.4C74,44,73.9,45,73.6,45.7c-0.7,2.1-1.1,3.9-0.9,5.5c0.1,0.9,0.7,1.6,1.3,1.6
		c0.4,0,0.8-0.3,1.2-0.9c0.5-0.8,0.9-2.3,1.1-3.9c0.2-1.7,0-2.9-0.2-3.2c-0.3-0.5-0.8-0.8-1.3-1.1l-0.2-0.1
		C74.4,43.6,74.2,43.5,74.1,43.4z M109.8,51.7c0.1,0,0.1,0.1,0.1,0.1c-0.1,0.5-0.3,0.8-0.3,0.8c0,0-0.1,0-0.1,0c0,0,0,0-0.1,0
		c0,0-0.1-0.1,0-0.1l0,0c0,0,0.2-0.3,0.3-0.8C109.7,51.7,109.7,51.7,109.8,51.7z M108.7,46.8c1.3,1.1,1.7,2.2,1.3,4
		c0,0,0,0.1-0.1,0.1l0,0c0,0,0,0,0,0c-0.1,0-0.1-0.1-0.1-0.1c0.3-1.8,0-2.7-1.3-3.8c0,0,0-0.1,0-0.1
		C108.6,46.8,108.7,46.8,108.7,46.8z M102.6,41.6c-1.3,2.1-3.7,4.4-6,5.6c0,0.3,0.1,0.6,0.3,0.7c0.3,0.3,0.8,0.5,1.5,0.5
		c0.4,0,1-0.1,1.5-0.2c3.3-0.7,4.3-1.5,4.6-2.1l0,0c0-0.1,0-0.2-0.1-0.5c-0.1-0.2-0.2-0.5-0.4-0.7l-0.5-0.9c-0.4-0.7-0.9-1.5-1-2.3
		C102.6,41.7,102.6,41.6,102.6,41.6z M42.8,45.5c0,0.1,0,0.1-0.1,0.1c-0.6,0.2-1,0.6-1,1c0,0.1,0,0.1-0.1,0.1c-0.1,0-0.1,0-0.1-0.1
		c0-0.5,0.5-1,1.1-1.2C42.7,45.4,42.8,45.4,42.8,45.5z M47.5,43.3c0,0.1,0,0.1-0.1,0.1c-0.3,0.1-0.6,0.3-1,0.5l-0.7,0.4
		c-0.6,0.3-1.1,0.6-1.5,0.7l-0.2,0c-0.1,0-0.1,0-0.1-0.1c0-0.1,0-0.1,0.1-0.1c0.4-0.1,0.9-0.3,1.4-0.7l1-0.6
		c0.3-0.2,0.5-0.3,0.8-0.4C47.4,43.3,47.5,43.3,47.5,43.3z M62.5,42.3c0,0.1,0,0.1,0,0.1c-0.6,0.3-1.2,0.9-1.6,1.5l-0.4,0.5
		c-0.1,0.1-0.2,0.2-0.2,0.2c0,0-0.1,0-0.1,0c0,0-0.1,0-0.1,0c-0.3-0.2-0.2-1.3-0.1-1.7c0-0.1,0.1-0.1,0.1-0.1c0.1,0,0.1,0.1,0.1,0.1
		c-0.1,0.6-0.1,1.3,0,1.4c0.1-0.1,0.1-0.2,0.2-0.3l0.3-0.4c0.4-0.5,1-1.2,1.7-1.5C62.4,42.2,62.5,42.2,62.5,42.3z M99.7,39.6
		c0.7,0,1,0.7,0.6,1.4c-1.2,2.5-4.2,3.3-4.2,3.3l0.1-0.3c0.2-0.6,0.7-2,1.8-3.4C98.6,40,99.3,39.6,99.7,39.6z M99.7,40.1L99.7,40.1
		c-0.2,0-0.7,0.1-1.4,1c-0.8,1-1.3,2-1.5,2.7c0.9-0.4,2.4-1.3,3.2-2.8c0.2-0.3,0.1-0.6,0.1-0.7C99.9,40.1,99.8,40.1,99.7,40.1z
		 M64.7,41.7c0,0,0.1,0.1,0,0.1c0,0-0.1,0.1-0.1,0c-0.3-0.2-0.8-0.1-1,0l-0.1,0c0,0,0,0,0,0c0,0-0.1,0-0.1-0.1c0-0.1,0-0.1,0.1-0.1
		C63.6,41.6,64.2,41.4,64.7,41.7z M98.3,36.9c0.1,0,0.1,0,0.1,0.1c0,0.1,0,0.1-0.1,0.1c-0.4,0-1,0.5-1.7,1.2
		c-0.6,0.7-1.1,1.4-1.3,1.7c0,0-0.1,0.1-0.1,0.1c0,0,0,0,0,0c-0.1,0-0.1-0.1,0-0.1C95.4,39.1,97.2,37,98.3,36.9z"/>
</g>
</svg>
